<svg width="40" height="56" viewBox="0 0 40 56" fill="none" xmlns="http://www.w3.org/2000/svg">
<path d="M0.45199 56C13.5051 46.6235 26.4958 37.2542 39.6014 27.9714C26.4819 18.7343 13.5101 9.35363 0.432163 -1.55958e-09C0.422252 0.219681 0.413334 0.335248 0.412343 0.451856C0.412343 4.63309 0.409039 8.81398 0.402431 12.9945C0.402431 13.2538 0.438111 13.4339 0.673999 13.5942C3.61169 15.5932 6.46217 17.7255 9.33842 19.8171C12.4439 22.0778 15.5495 24.3385 18.655 26.5991C19.1426 26.9552 19.6134 27.3394 20.1129 27.6746C20.4202 27.8829 20.3617 27.9766 20.101 28.1681C16.9225 30.5013 13.7578 32.8533 10.5773 35.1844C7.29009 37.5922 3.99559 39.9903 0.693824 42.3787C0.503528 42.5161 0.396486 42.6525 0.396486 42.9191C0.405737 47.1871 0.408379 51.4558 0.404414 55.7251C0.414822 55.8177 0.430712 55.9095 0.45199 56Z" fill="#FFD644"/>
<path d="M0.43921 29.1229L0.439211 42.3038C1.41051 41.6135 2.33622 40.9669 3.25103 40.3037C5.28482 38.8305 7.31465 37.3448 9.34844 35.8757C9.59919 35.6946 9.68344 35.604 9.37421 35.3864C6.46691 33.3451 3.56753 31.2975 0.676091 29.2437C0.599269 29.1989 0.520192 29.1586 0.43921 29.1229Z" fill="#FFD644"/>
<path d="M0.44502 13.6452L0.445021 26.824C0.795879 26.5866 1.09817 26.3919 1.39056 26.1816C4.01704 24.2972 6.6422 22.4127 9.26604 20.5282C9.43056 20.4095 9.6942 20.3366 9.33839 20.0816C6.40168 17.9628 3.4739 15.8368 0.44502 13.6452Z" fill="#FFD644"/>
</svg>
