<svg width="16" height="16" viewBox="0 0 16 16" fill="none" xmlns="http://www.w3.org/2000/svg">
<path d="M15 3.113C12.6559 6.37628 10.3136 9.62395 7.99284 12.9004C5.68358 9.62048 3.33841 6.37752 1 3.10804C1.05492 3.10556 1.08381 3.10333 1.11296 3.10309C2.15827 3.10309 3.20349 3.10226 4.24863 3.10061C4.31344 3.10061 4.35847 3.10953 4.39855 3.1685C4.8983 3.90292 5.43137 4.61554 5.95428 5.3346C6.51945 6.11099 7.08462 6.88737 7.64979 7.66375C7.7388 7.78566 7.83485 7.90335 7.91866 8.02824C7.97072 8.10505 7.99414 8.09043 8.04204 8.02526C8.62534 7.23063 9.21332 6.43946 9.7961 5.64433C10.3981 4.82252 10.9976 3.9989 11.5947 3.17346C11.629 3.12588 11.6631 3.09912 11.7298 3.09912C12.7968 3.10143 13.8639 3.10209 14.9313 3.1011C14.9544 3.1037 14.9774 3.10768 15 3.113Z" fill="white"/>
<path d="M8.28072 3.1098H11.5759C11.4034 3.35263 11.2417 3.58406 11.0759 3.81276C10.7076 4.32121 10.3362 4.82866 9.96894 5.33711C9.92365 5.3998 9.901 5.42086 9.8466 5.34355C9.33627 4.61673 8.82437 3.89188 8.31092 3.16902C8.29973 3.14982 8.28965 3.13005 8.28072 3.1098Z" fill="white"/>
<path d="M4.4113 3.11125H7.706C7.64666 3.19897 7.59798 3.27454 7.54541 3.34764C7.07429 4.00426 6.60317 4.66055 6.13205 5.31651C6.10238 5.35764 6.08416 5.42355 6.02039 5.3346C5.49071 4.60042 4.95921 3.86847 4.4113 3.11125Z" fill="white"/>
</svg>
