<svg width="48" height="48" viewBox="0 0 48 48" fill="none" xmlns="http://www.w3.org/2000/svg">
<path d="M4.21539 12.5773L24 1.1547L43.7846 12.5773V35.4226L24 46.8453L4.21539 35.4226V12.5773Z" fill="#171E2F" stroke="#FFD644" stroke-width="2"/>
<path d="M18.8109 13.1198L16.1845 24.0797C16.448 23.85 16.7906 23.8078 17.1047 23.8734L19.6359 13.3167L18.8109 13.1198ZM20.5453 13.4058L17.8734 24.2531C17.9203 24.2906 17.9625 24.3375 18 24.3797C19.8375 23.7234 23.4938 22.8797 23.9578 25.8891C24.6703 30.5344 28.4953 32.2547 30.9375 31.2703C29.6344 26.6016 35.0438 25.7953 34.2516 21.6562C34.2516 21.6562 29.0484 22.8937 28.0828 17.4094C26.9813 14.6841 23.3203 12.5658 20.5453 13.4058ZM16.7531 24.6984C16.4292 25.7437 16.2525 27.0984 16.7812 27.8812C17.0344 29.2922 18.375 30.2953 19.0969 30.5766C18.525 30.7922 17.9344 30.7078 17.4375 30.4219C17.175 30.9562 16.5605 31.2422 16.0425 31.4062C16.3805 31.8188 16.7672 32.1891 17.1656 32.4563C17.3672 33.3094 17.5078 34.4156 17.7609 35.1234H23.1375C21.6516 34.2516 20.475 33.1547 20.2641 31.8469C20.6672 30.9938 20.7563 29.6812 20.2406 28.5234C19.5469 27.4594 17.6672 27.45 17.3766 26.2594C17.2594 25.7344 17.6203 24.3562 16.7531 24.6984ZM14.8134 25.3078C14.4773 25.3781 14.2519 25.6969 14.3334 25.9969C14.7394 26.0438 15.1687 26.1 15.577 26.175C15.5948 25.9828 15.6239 25.7906 15.6581 25.6125C15.3684 25.4953 15.0731 25.3875 14.8134 25.3078ZM14.0208 26.8172C13.6716 26.8969 13.5262 27.3984 13.8478 27.5531C14.4952 27.5906 15.1978 27.675 15.7678 27.7828C15.6741 27.5484 15.6159 27.3094 15.585 27.0656C15.0998 26.9625 14.5247 26.8641 14.0208 26.8172ZM13.8717 28.3875C13.4522 28.6453 13.8811 29.1469 14.092 29.2313C14.8219 29.325 15.4814 29.3578 16.0186 29.1469C16.23 29.0297 16.2197 28.9406 16.1541 28.7578C15.3656 28.5844 14.595 28.4578 13.8717 28.3875ZM16.5886 29.7797C16.0008 30.1969 15.083 30.1781 14.4844 30.1266C14.5612 30.4078 14.8542 30.5484 14.9962 30.6047C15.4355 30.7781 16.0448 30.5531 16.5652 30.2109C16.7156 30.0844 16.7766 29.8031 16.5886 29.7797ZM14.4577 31.2891L13.8398 33.8625L14.6602 34.0594L15.2695 31.5141C14.9606 31.4906 14.7098 31.4156 14.4577 31.2891Z" fill="white"/>
</svg>
