<svg width="48" height="48" viewBox="0 0 48 48" fill="none" xmlns="http://www.w3.org/2000/svg">
<path d="M4.21539 12.5773L24 1.1547L43.7846 12.5773V35.4226L24 46.8453L4.21539 35.4226V12.5773Z" fill="#171E2F" stroke="#FFD644" stroke-width="2"/>
<g clip-path="url(#clip0_138_50)">
<path d="M31.6442 13L27.8291 19.0674L27.4174 17.4358L25.9092 21.8764L29.0363 20.4103L29.0473 21.8795L35.3875 19.3372L31.8531 19.2389L34.238 15.8107L30.571 17.7697L31.6441 13L31.6442 13ZM21.5046 14.6066L19.9074 15.3256L20.7496 18.1034L11.8748 22.0978L12.5019 23.4891L21.3766 19.4932L22.8942 21.9622L25.3554 20.8547L24.2901 17.3438L21.5046 14.6066ZM20.8743 22.8262V23.8416H16.437C17.2352 25.7785 18.9937 27.1073 20.8743 27.549V29.1946H23.7972C23.1924 30.7183 22.125 31.9738 20.8789 33.0674H19.608V34H33.7996V33.0674H32.4318C30.9976 31.9746 29.9335 30.7207 29.356 29.1946H32.5332V27.7378C33.5189 27.3887 34.5047 26.764 35.4904 25.9067C34.5016 25.0321 33.5324 24.5466 32.5332 24.3126V22.8263H20.8744L20.8743 22.8262Z" fill="white"/>
</g>
<defs>
<clipPath id="clip0_138_50">
<rect width="24" height="24" fill="white" transform="translate(12 12)"/>
</clipPath>
</defs>
</svg>
