<svg width="48" height="48" viewBox="0 0 48 48" fill="none" xmlns="http://www.w3.org/2000/svg">
<path d="M4.21539 12.5773L24 1.1547L43.7846 12.5773V35.4226L24 46.8453L4.21539 35.4226V12.5773Z" fill="#171E2F" stroke="#2C3B5E" stroke-width="2"/>
<path d="M27.0688 13.5981C27.0593 13.6886 27.055 13.7421 27.0435 13.8452C26.9727 14.4808 26.8624 15.342 26.7036 16.2511C26.5449 17.1603 26.3387 18.1163 26.0693 18.9507C25.7999 19.785 25.4907 20.5011 24.9966 20.9558C24.2391 21.6528 22.9637 21.9571 21.9617 21.8184C21.4458 21.747 20.9664 21.4562 20.4687 21.0773C19.9718 20.6991 19.4644 20.219 18.9712 19.7152C17.9521 18.6954 17.7363 17.3925 18.1589 16.3072C18.4897 15.4571 19.1846 14.7417 20.103 14.3C19.5911 14.0417 19.0132 13.9653 18.4712 14.084C18.3312 14.1146 18.2213 14.1391 18.1249 14.1751H18.1247C17.7841 14.3024 17.4467 14.5223 17.1771 14.8016V14.8017C16.8364 15.1544 16.7299 15.6421 16.5369 16.2373C16.3697 16.7529 16.2038 17.2678 16.0409 17.7827C16.609 18.042 17.0277 18.5546 17.2598 19.1629C17.5325 19.8774 17.5706 20.7396 17.3376 21.6093C17.1046 22.479 16.6404 23.2067 16.0471 23.6891C15.5463 24.0964 14.9336 24.3306 14.3174 24.2766C14.2273 24.7502 14.1467 25.2257 14.0776 25.7038C14.1618 25.6657 14.2112 25.6419 14.3078 25.5993C14.8975 25.3383 15.7036 24.9973 16.575 24.6759C17.4464 24.3546 18.3817 24.0525 19.2418 23.87C20.102 23.6874 20.8793 23.6008 21.521 23.8198C22.5549 24.1726 23.4058 25.0299 23.7605 26.059C24.0932 27.0238 23.8194 28.3372 23.4378 29.703C23.0638 31.0971 22.0352 31.9372 20.8773 32.1178C19.9693 32.2594 18.9942 32.0183 18.1485 31.4428C18.2158 32.4976 18.9652 33.431 20.0517 33.7019C20.5423 33.8242 20.993 33.6953 21.5935 33.5673C22.1661 33.4453 22.7378 33.3216 23.3078 33.1946C23.2726 32.5975 23.5046 32.0068 23.8994 31.5215C24.3819 30.9281 25.1095 30.464 25.9793 30.231C26.4141 30.1145 26.847 30.0658 27.2607 30.0803C27.6742 30.0948 28.0684 30.1725 28.4257 30.3088C28.9959 30.5263 29.4816 30.9082 29.7538 31.423C30.1853 31.2707 30.6141 31.1103 31.0395 30.94C30.5149 30.5626 29.7945 30.0285 28.9216 29.298C28.2138 28.7057 27.4903 28.0486 26.9056 27.3965C26.3207 26.7445 25.8588 26.1158 25.723 25.4545C25.5109 24.4221 25.8023 23.1158 26.4703 22.3299C27.1312 21.5524 28.4254 21.1409 29.7982 20.7887C31.1926 20.4156 32.4366 20.8845 33.1753 21.7957C33.7542 22.5099 34.0357 23.4739 33.9616 24.4937C34.8349 23.907 35.2568 22.7898 34.9476 21.712C34.8089 21.2283 34.4663 20.8993 34.0542 20.4422C33.6876 20.0355 33.3206 19.6309 32.9518 19.2291C32.4887 19.466 31.9413 19.5281 31.401 19.4414C30.6458 19.3202 29.8801 18.922 29.2434 18.2855C28.6067 17.6488 28.2086 16.883 28.0875 16.1278C28.0024 15.5976 28.0605 15.0606 28.2865 14.6032C27.8886 14.2594 27.4833 13.9239 27.0687 13.5982L27.0688 13.5981ZM24.066 14.3132C23.3284 14.3116 22.5789 14.4005 22.2336 14.5216L21.1391 14.8427C20.0602 15.1308 19.2831 15.8354 18.9757 16.6251C18.6683 17.4149 18.7801 18.2848 19.592 19.0966L19.5937 19.0983L19.5953 19.0999C19.8812 19.3919 20.1697 19.6719 20.4498 19.9221C21.0941 19.2435 21.9266 18.7284 22.8945 18.4691C23.3538 18.3461 23.8155 18.2881 24.2697 18.2895C24.3346 18.2897 24.3993 18.2911 24.4639 18.2937C24.7544 18.3054 25.041 18.3419 25.3216 18.4006C25.5313 17.6906 25.7041 16.88 25.8402 16.1004C25.9364 15.5494 26.0127 15.0208 26.0749 14.5446C25.5297 14.4189 24.97 14.3425 24.4018 14.3201C24.2902 14.3157 24.1783 14.3134 24.066 14.3132H24.066ZM30.2883 14.3291C30.2565 14.3285 30.2252 14.3286 30.1943 14.3296C29.8227 14.3404 29.5121 14.4643 29.2863 14.6901C28.9853 14.9911 28.8653 15.4429 28.9529 15.9891C29.0405 16.5351 29.3476 17.1503 29.8632 17.6658C30.3787 18.1813 30.9938 18.4884 31.54 18.5761C32.0861 18.6637 32.5379 18.5438 32.8389 18.2428C33.1399 17.9418 33.2598 17.49 33.1723 16.9439C33.0846 16.3977 32.7775 15.7826 32.262 15.267C31.7465 14.7516 31.1313 14.4444 30.5852 14.3567C30.4829 14.3403 30.3838 14.3312 30.2884 14.3292L30.2883 14.3291ZM15.1881 18.4778C14.8676 18.4821 14.5333 18.6161 14.2114 18.8779C13.7823 19.2268 13.4032 19.8004 13.2145 20.5046C13.0258 21.2087 13.0673 21.8951 13.2645 22.4119C13.4617 22.9287 13.7914 23.26 14.2027 23.3701C14.6138 23.4803 15.0651 23.3583 15.4942 23.0093C15.9233 22.6604 16.3025 22.0868 16.4912 21.3826C16.6799 20.6785 16.6383 19.9921 16.4411 19.4753C16.244 18.9585 15.9142 18.6272 15.503 18.517C15.4003 18.4895 15.2949 18.4764 15.1881 18.4778V18.4778ZM30.8012 21.528C30.56 21.5272 30.3009 21.5615 30.024 21.6357L30.0217 21.6364L30.0195 21.6369C29.7515 21.7056 29.4879 21.7822 29.2343 21.8638C29.27 21.9697 29.3036 22.0768 29.3329 22.1863C29.8345 24.0583 29.2546 25.9702 27.9782 27.2558C28.4374 27.7199 28.9635 28.1904 29.4841 28.626C29.9029 28.9765 30.3123 29.2991 30.6863 29.5855C31.6669 28.5306 32.3855 27.254 32.7781 25.8666L32.7738 25.868L32.8816 25.4675C32.9911 24.9999 33.0639 24.5213 33.0979 24.0358C33.0692 23.3768 32.8486 22.7847 32.4944 22.3478C32.0889 21.8477 31.525 21.5302 30.8012 21.528ZM19.1476 24.7903C18.4242 24.9628 17.6287 25.2217 16.8783 25.4984C16.3351 25.6987 15.8223 25.906 15.3668 26.0978C15.8078 27.5175 16.5683 28.7557 17.5473 29.7543L17.5538 29.7278L18.0872 30.2622C18.3323 30.4744 18.5886 30.6726 18.8541 30.8569C19.4748 31.2152 20.1475 31.3447 20.7422 31.2521C21.5893 31.1199 22.2948 30.5826 22.5915 29.475L22.5922 29.4728L22.5929 29.4706C22.6753 29.1759 22.7463 28.8826 22.8059 28.5982C21.0931 28.1036 19.6714 26.7509 19.1774 24.9073C19.167 24.8684 19.1572 24.8293 19.1476 24.7903ZM27.1073 30.9559C26.8187 30.9566 26.514 30.995 26.2059 31.0776C25.5017 31.2663 24.9281 31.6453 24.5792 32.0745C24.2302 32.5036 24.1082 32.9548 24.2183 33.3661C24.3285 33.7774 24.6599 34.1071 25.1767 34.3043C25.6934 34.5015 26.3797 34.5431 27.084 34.3544C27.7882 34.1657 28.3617 33.7866 28.7107 33.3574C29.0596 32.9283 29.1817 32.4771 29.0715 32.0658C28.9613 31.6546 28.6299 31.3249 28.1132 31.1277C27.8548 31.0291 27.5541 30.9694 27.2299 30.958C27.1894 30.9565 27.1485 30.9559 27.1072 30.956L27.1073 30.9559Z" fill="#848E9C"/>
</svg>
