<svg width="29" height="28" viewBox="0 0 29 28" fill="none" xmlns="http://www.w3.org/2000/svg">
<path d="M11.4276 10.8912C11.0095 10.6143 10.7658 10.2 10.5084 9.79087C11.5662 10.7673 12.602 11.7672 13.7484 12.6472C13.6694 12.4763 13.5308 12.3528 13.4043 12.2205C12.9476 11.7456 12.4156 11.3464 11.9674 10.8605C11.4656 10.3184 10.9604 9.77943 10.4517 9.24364C10.4115 9.20633 10.3834 9.15789 10.3711 9.10457C10.3587 9.05125 10.3628 8.99548 10.3826 8.94446C10.5093 8.57523 10.5689 8.1866 10.5587 7.79666C10.5547 7.69839 10.758 7.44742 10.8448 7.41783C10.8937 7.40066 10.9092 7.43939 10.9305 7.4635C11.1484 7.70423 11.4179 7.89335 11.7192 8.01694C11.7688 8.03849 11.7971 8.05968 11.7971 8.12178C11.7934 8.50316 11.9681 8.82537 12.1472 9.14464C12.1825 9.20784 12.2402 9.26118 12.1619 9.33424C12.1222 9.37113 12.1538 9.39232 12.1905 9.41388C12.3847 9.52895 12.5608 9.67215 12.7741 9.76969C12.7395 9.8285 12.6895 9.77407 12.6468 9.82521L12.9998 10.2833C13.4105 10.8137 13.8617 11.312 14.232 11.8731C14.2419 11.8885 14.2533 11.9024 14.2643 11.917C14.3559 11.792 14.5158 11.9429 14.6191 11.8209C15.0493 11.3138 15.4865 10.8126 15.923 10.3103C15.9744 10.2526 16.0031 10.1288 16.1215 10.2592C16.1748 10.3184 16.2723 10.2117 16.2484 10.0944C16.1965 9.83873 16.1355 9.58521 16.0807 9.32949C16.0633 9.25929 16.0623 9.18607 16.0778 9.11542L16.3943 9.65827C16.4932 9.56877 16.4624 9.38282 16.6771 9.42739L16.4407 9.14428C16.6863 9.23816 16.7977 9.10446 16.9039 8.91779C17.0477 8.66536 17.1698 8.41074 17.1676 8.11411C17.1657 8.08727 17.1724 8.06051 17.1867 8.03767C17.201 8.01484 17.2223 7.99709 17.2474 7.98698C17.5867 7.80433 17.9243 7.62167 18.2637 7.43902C18.3302 7.40285 18.4037 7.35281 18.4773 7.43573C18.5508 7.51866 18.6677 7.56797 18.6284 7.71958C18.5365 8.07064 18.5052 8.42681 18.6016 8.78335C18.6302 8.88929 18.5722 8.95505 18.5093 9.02409C17.9449 9.6411 17.3827 10.2603 16.8146 10.874C16.7234 10.9723 16.6738 11.0567 16.7157 11.1973C16.7576 11.338 16.7164 11.4592 16.6212 11.5831L16.6039 11.6056C16.2787 12.0277 15.9528 12.4509 15.602 12.8529C15.5038 12.9636 15.5321 13.0184 15.6141 13.1039C15.9423 13.4489 16.2689 13.7954 16.594 14.1432C16.6333 14.1848 16.6855 14.2213 16.6855 14.3072C16.4208 14.229 16.2175 14.05 15.9755 13.9178C16.0119 14.1519 16.316 14.4781 16.726 14.7412C17.0393 14.9435 17.3878 15.0754 17.7507 15.1909C17.7323 15.2058 17.7257 15.2168 17.718 15.2168C17.6051 15.2278 17.4558 15.1847 17.3985 15.3008C17.3363 15.4243 17.4805 15.4995 17.5456 15.5883C17.6261 15.6961 17.7239 15.7889 17.8029 15.8985C17.868 15.9872 17.925 16.0223 17.9912 15.9087C18.0515 15.8049 18.0964 15.851 18.1537 15.9123C18.5405 16.3277 18.9266 16.7438 19.3189 17.1544C19.4336 17.2742 19.3906 17.416 19.4094 17.5504C19.4189 17.6037 19.3759 17.7246 19.5197 17.6329C19.5679 17.6008 19.6576 17.729 19.7517 17.6194C19.6704 17.752 19.7054 17.8119 19.8175 17.8854C19.9297 17.9588 20.0032 18.0932 20.0889 18.2028C21.0541 19.4533 22.2251 20.5156 23.3003 21.6652C23.4922 21.8705 23.697 22.0634 23.8808 22.276C24.1713 22.6139 24.5203 22.8762 24.9012 23.1009C24.9706 23.1395 25.0276 23.1969 25.0655 23.2664C25.8987 24.8153 26.715 26.3726 27.4923 27.9496C27.4962 27.9615 27.4988 27.9737 27.5 27.9861C27.4493 28.0252 27.4246 27.9712 27.3952 27.9522C25.9347 27.0141 24.4912 26.0526 23.1142 24.9957C23.0495 24.9499 22.9893 24.898 22.9344 24.8408C21.0143 22.6764 19.0619 20.5401 17.1168 18.3979C17.0804 18.3577 17.0462 18.315 16.976 18.2321C17.279 18.5243 17.5485 18.7734 17.8059 19.0357C19.3145 20.5755 20.8437 22.097 22.3145 23.6708C22.8582 24.2519 23.4367 24.8 24.0467 25.3121C24.6008 25.7779 25.1597 26.2246 25.7902 26.5815C26.0818 26.7467 26.33 26.9713 26.6153 27.154C26.4065 26.9187 26.2028 26.6798 25.9903 26.4489C24.7401 25.0939 23.49 23.7383 22.2398 22.3823C21.9769 22.097 21.6357 21.9074 21.3482 21.6517C20.8071 21.1748 20.3093 20.6514 19.8609 20.0874C19.1483 19.1851 18.3659 18.35 17.5673 17.5255C16.4686 16.3891 15.4501 15.1795 14.3801 14.0127C13.6006 13.1623 12.8175 12.3148 12.0637 11.4417C11.8781 11.23 11.6641 11.0448 11.4276 10.8912Z" fill="white"/>
<path d="M1.5 27.9752C1.50036 27.975 1.50072 27.9747 1.50108 27.9745C1.73923 27.5046 1.97921 27.0354 2.21479 26.5644C2.77478 25.4447 3.38293 24.3488 3.97271 23.2437C4.01352 23.1681 4.05544 23.0917 4.13265 23.0479C4.69558 22.7275 5.11107 22.2442 5.5523 21.7887C6.33547 20.9828 7.11497 20.1739 7.8908 19.3619C8.33864 18.8929 8.72251 18.3687 9.08431 17.8368C9.2108 17.6497 9.3314 17.683 9.46818 17.6713C9.71122 17.6505 9.74762 17.6373 9.691 17.4013C9.64541 17.2121 9.71343 17.0934 9.83329 16.9655C10.1576 16.6158 10.4774 16.2627 10.7926 15.9061C10.8672 15.8217 10.9139 15.8009 11.0073 15.8846C11.1776 16.0424 11.3583 16.1889 11.5482 16.323C11.714 16.4366 11.6875 16.5348 11.5743 16.659C11.2456 17.02 10.9194 17.3834 10.5915 17.7451C9.43619 19.0208 8.2412 20.261 7.11608 21.5637C7.04144 21.6502 6.96054 21.7335 6.90061 21.8723C7.02526 21.8333 7.09622 21.7617 7.16792 21.6944C7.95992 20.9569 8.67728 20.1481 9.41891 19.3627C10.2764 18.4594 11.1265 17.5495 11.9692 16.6331C12.4112 16.1524 12.83 15.6511 13.2605 15.1602C13.3285 15.0817 13.4033 15.0093 13.4841 14.9439C13.3495 15.2267 13.1594 15.4732 12.9667 15.7165C12.2141 16.6685 11.4519 17.6129 10.7577 18.6087C10.6434 18.7716 10.539 18.941 10.4448 19.1161C11.4574 18.1332 12.488 17.1712 13.5367 16.2302L13.5708 16.2612C13.4006 16.4614 13.2318 16.6627 13.0601 16.861C11.2257 18.9798 9.32625 21.0391 7.47825 23.1444C7.04364 23.6397 6.60425 24.1307 6.18803 24.6421C5.95896 24.923 5.66849 25.1199 5.38573 25.3314C4.13409 26.2678 2.83211 27.1345 1.50108 27.9745C1.50097 27.9747 1.50085 27.975 1.50074 27.9752H1.5Z" fill="white"/>
<path d="M17.6048 5.7491C16.4951 4.94652 15.8321 3.88165 15.5089 2.58627L15.5093 2.58481C15.5862 2.61293 15.5957 2.67796 15.6262 2.72654C15.8152 3.02464 16.013 3.31834 16.1873 3.62484C16.5535 4.26851 17.1007 4.74049 17.6485 5.22087C19.2976 6.66603 20.9334 8.12543 22.5755 9.57827C22.9138 9.87782 23.2609 10.1679 23.5948 10.4722C23.9691 10.813 24.425 11.0044 24.8839 11.1904C25.2777 11.3496 25.6774 11.4939 26.0679 11.662C24.8243 11.5761 23.6753 11.2433 22.6917 10.4053C22.9028 11.312 22.5494 11.9557 21.788 12.4145C21.8659 12.3108 21.9472 12.2092 22.0207 12.1036C22.5259 11.3982 22.5211 10.7173 22.0111 10.0141C21.6993 9.58484 21.2861 9.25826 20.8779 8.92729C20.8728 8.9238 20.868 8.91989 20.8636 8.9156C20.5742 8.57878 20.2076 8.49841 19.7811 8.57148C19.559 8.6102 19.3289 8.60107 19.1049 8.63175C18.9656 8.65075 18.92 8.62262 18.9351 8.4765C18.9707 8.12543 18.9876 7.77291 19.0215 7.42185C19.0298 7.37432 19.0254 7.32545 19.0087 7.28013C18.9921 7.23481 18.9638 7.19462 18.9266 7.16358C18.785 7.03791 18.6468 6.90823 18.5133 6.77416C17.8728 6.13158 17.0922 5.98729 16.2296 6.14145C16.0568 6.1725 15.8869 6.22181 15.7108 6.26382C15.9557 5.89523 16.748 5.67604 17.6048 5.7491Z" fill="white"/>
<path d="M3.21931 11.7095L3.21012 11.6587C3.40647 11.5787 3.60171 11.4965 3.79916 11.4183C4.36999 11.2007 4.89634 10.882 5.35264 10.4777C7.48205 8.57123 9.62886 6.68381 11.7931 4.81538C12.3174 4.36276 12.6877 3.7874 13.0653 3.21825C13.1987 3.0166 13.3296 2.81312 13.483 2.57823C13.3929 3.35195 12.4038 4.85118 11.3963 5.75897C11.7467 5.69465 12.1079 5.72287 12.4439 5.8408C12.7755 5.94625 13.0818 6.11806 13.344 6.34565C13.0359 6.27478 12.7432 6.15788 12.4292 6.11186C11.8012 6.01907 11.239 6.16665 10.7349 6.54036C10.4646 6.74092 10.2256 6.978 9.97853 7.20559C9.95136 7.22942 9.93031 7.25936 9.91714 7.29291C9.90396 7.32646 9.89904 7.36265 9.90279 7.39847C9.91382 7.78131 9.91455 8.16525 9.92926 8.54846C9.93404 8.67376 9.89874 8.70226 9.77446 8.68728C9.40383 8.64198 9.03137 8.61385 8.66037 8.57111C8.60089 8.56109 8.53993 8.56404 8.48171 8.57974C8.42349 8.59545 8.36941 8.62354 8.3232 8.66207C7.98419 8.93203 7.629 9.1841 7.33485 9.5052C6.69728 10.1975 6.38658 11.3259 7.08519 12.321C7.10431 12.3484 7.13851 12.3736 7.12637 12.416C6.43218 12.0982 6.12663 11.2485 6.34246 10.2212C5.50229 11.1498 4.38341 11.4768 3.21931 11.7095Z" fill="white"/>
<path d="M4.36025 0.824386C4.58123 0.80612 4.70919 0.875528 4.74926 1.10348C4.60734 1.11809 4.31466 1.37089 4.29443 1.50094C4.28634 1.5477 4.3165 1.58057 4.33856 1.6171C4.43526 1.7782 4.61837 1.9331 4.60587 2.1015C4.5941 2.25749 4.3551 2.34516 4.26134 2.50334C4.21979 2.57348 4.16721 2.59138 4.09368 2.5501C4.02973 2.51419 3.96281 2.48376 3.89365 2.45914C3.79952 2.42663 3.70393 2.29585 3.62009 2.36453C3.51898 2.44745 3.41125 2.55595 3.3947 2.70755C3.3936 2.72033 3.38882 2.73202 3.38882 2.74408C3.38367 2.79303 3.3833 2.85477 3.32484 2.86207C3.2513 2.87121 3.26417 2.79595 3.2513 2.75614C3.10974 2.32288 2.9634 1.89255 2.83618 1.45418C2.74757 1.15024 2.62108 0.878816 2.38613 0.654882C2.23761 0.51674 2.11552 0.352992 2.02579 0.17158C2.0052 0.127013 1.95189 0.0751378 2.0052 0.0221681C2.06403 -0.0355506 2.10742 0.0349539 2.14419 0.0586989C2.33649 0.178885 2.50158 0.334142 2.66484 0.489763C2.9134 0.727579 3.18732 0.873703 3.55134 0.837172C3.81975 0.810504 4.09257 0.846669 4.36025 0.824386Z" fill="white"/>
<path d="M26.6933 0.112035C26.7962 0.0192464 26.897 -0.0333582 27.0408 0.055777C26.8701 0.262907 26.7205 0.490859 26.5264 0.674243C26.2374 0.94311 26.0969 1.2686 26.0285 1.64341C25.9623 2.00141 25.8814 2.35649 25.8079 2.71303C25.7994 2.75358 25.8072 2.81276 25.7546 2.81605C25.702 2.81933 25.7053 2.76088 25.6921 2.7207C25.6476 2.58919 25.5413 2.50152 25.4637 2.39192C25.4218 2.33384 25.3696 2.35028 25.3167 2.37329C25.195 2.42626 25.0718 2.46973 24.949 2.53366C24.8262 2.59759 24.7368 2.59613 24.6592 2.46535C24.6165 2.39129 24.558 2.32735 24.4879 2.27795C24.3272 2.16835 24.3037 2.05547 24.4375 1.91264C24.4558 1.88837 24.4719 1.86258 24.4857 1.83556C24.6795 1.53165 24.6784 1.53015 24.4872 1.2514L24.4794 1.24011C24.451 1.19153 24.4077 1.15327 24.3559 1.13092C24.304 1.10857 24.2463 1.10331 24.1912 1.1159C24.2195 0.935073 24.3033 0.862012 24.4853 0.862012C24.8585 0.863839 25.2317 0.841554 25.6049 0.833883C25.7902 0.830807 25.9674 0.758103 26.1009 0.630407C26.2958 0.454694 26.4999 0.289209 26.6933 0.112035Z" fill="white"/>
<path d="M10.9246 11.8487C10.8503 11.9246 10.9117 12.0218 10.843 12.1073C10.5698 11.4136 9.93956 11.1516 9.36265 10.832C9.26632 10.7787 9.20344 10.7323 9.16925 10.619C9.07144 10.2939 8.84899 10.0345 8.68133 9.74594C8.59418 9.59361 8.49859 9.4442 8.41034 9.2915C8.36842 9.21917 8.34563 9.13551 8.42615 9.07816C8.52065 9.01094 8.57286 9.10044 8.61698 9.15889C8.87437 9.49105 9.10676 9.8416 9.31228 10.2077C9.32956 10.2398 9.35567 10.2742 9.35567 10.3071C9.34978 10.5595 9.53253 10.6274 9.72005 10.7272C10.8371 11.3215 11.7254 12.1694 12.4369 13.2054C12.4498 13.2347 12.4605 13.2648 12.4689 13.2956C11.9501 12.7769 11.4482 12.3046 10.9246 11.8487Z" fill="white"/>
<path d="M6.66235 5.67531C6.62704 5.66154 6.59266 5.64556 6.5594 5.62746C6.76938 5.41472 6.99041 5.21304 7.2216 5.02324C7.34294 4.92314 7.45582 4.90634 7.57201 5.03639C7.67717 5.15438 7.79262 5.26471 7.90293 5.37722C7.98456 5.45942 7.97904 5.52115 7.88528 5.5986C7.62015 5.81483 7.37637 6.05568 7.15726 6.31789C7.11203 6.37269 7.07894 6.4841 6.97893 6.43917C6.93128 6.41745 6.88981 6.38432 6.85824 6.34275C6.82666 6.30118 6.80597 6.25247 6.79803 6.20099C6.78474 6.1346 6.79271 6.06575 6.82082 6.00409C6.90539 5.82801 6.83516 5.72828 6.66235 5.67531Z" fill="white"/>
<path d="M21.7027 5.00936C21.953 5.18507 22.1689 5.39841 22.398 5.62746C22.3255 5.66216 22.2781 5.6881 22.227 5.70856C22.1126 5.75678 22.0678 5.82765 22.1218 5.95185C22.1909 6.11514 22.1836 6.26967 22.0439 6.40118C21.9898 6.45232 21.9417 6.46584 21.8883 6.40629C21.6237 6.1039 21.3353 5.82294 21.0257 5.56609C20.9588 5.51165 20.9868 5.45868 21.0324 5.41119C21.1669 5.27055 21.3019 5.13027 21.4398 4.99292C21.5306 4.90269 21.6192 4.95054 21.7027 5.00936Z" fill="white"/>
<path d="M18.2232 11.75C18.0555 11.8706 17.9022 11.9685 17.6783 11.8622C18.2493 11.4004 18.7986 10.9171 19.4807 10.6252C19.5274 10.6055 19.573 10.5905 19.573 10.5292C19.5704 10.2753 19.7182 10.0817 19.844 9.88293C19.9955 9.64694 20.1606 9.42009 20.322 9.1914C20.3698 9.12346 20.4231 9.02519 20.5224 9.08181C20.6389 9.1483 20.5808 9.25533 20.5316 9.33753C20.3639 9.61991 20.1881 9.89755 20.0168 10.1777L20.0142 10.182C19.9165 10.3431 19.8194 10.5034 19.78 10.6892C19.778 10.7103 19.7704 10.7305 19.7581 10.7478C19.7458 10.7651 19.7291 10.7789 19.7098 10.7878C19.1616 11.0278 18.7012 11.4052 18.2232 11.75Z" fill="white"/>
<path d="M22.8563 5.06094C22.8879 5.13194 22.92 5.20406 22.9116 5.25594C22.9057 5.52261 22.6895 5.72828 22.5141 5.66107C22.4829 5.64901 22.4439 5.64974 22.4266 5.60627C22.3027 5.29539 22.0406 5.09411 21.8177 4.86396C21.6924 4.73464 21.6957 4.63966 21.813 4.50998C22.1457 4.14138 22.2178 4.13956 22.5322 4.53007C22.6622 4.6915 22.7707 4.86892 22.855 5.05794L22.8563 5.06094Z" fill="white"/>
<path d="M6.19869 5.58179C6.12516 5.48389 6.03397 5.39402 6.05162 5.25302C6.14906 4.85191 6.34209 4.49245 6.68698 4.26522C6.89767 4.12495 6.99731 4.40258 7.13115 4.51217C7.23374 4.5951 7.2797 4.7025 7.1602 4.82268C7.01864 4.96552 6.88112 5.1131 6.75096 5.26617C6.67434 5.36059 6.60478 5.46047 6.54285 5.56499C6.44688 5.71915 6.30716 5.72792 6.19869 5.58179Z" fill="white"/>
<path d="M7.48229 6.88412C7.46608 6.90597 7.45122 6.92878 7.4378 6.95243C7.30286 6.95535 7.11424 6.63753 7.17013 6.54803C7.38997 6.18733 7.69421 5.88468 8.05699 5.66581C8.18752 5.58508 8.27208 5.67823 8.35334 5.76773L8.35335 5.76774C8.44012 5.86345 8.4335 5.95295 8.34452 6.03952C8.21767 6.1619 8.09082 6.28538 7.96029 6.40483C7.79336 6.55753 7.61981 6.70146 7.48229 6.88412Z" fill="white"/>
<path d="M21.7681 6.73909C21.7127 6.82719 21.6383 6.90203 21.5504 6.95828V6.9601C21.5345 6.95022 21.52 6.93817 21.5074 6.9243C21.257 6.58822 20.9007 6.35844 20.618 6.05487C20.5363 5.96683 20.5176 5.88427 20.5911 5.77943C20.7014 5.62307 20.7974 5.59677 20.9588 5.70636C21.2655 5.92019 21.5335 6.18401 21.7516 6.48666C21.81 6.56593 21.8313 6.64996 21.7681 6.73909Z" fill="white"/>
<path d="M23.3179 4.46651C23.3573 4.53832 23.3809 4.61765 23.387 4.69921C23.349 4.83773 23.2621 4.95804 23.1422 5.03822C23.0745 5.08388 23.0245 5.02141 22.9914 4.97429C22.7862 4.67985 22.5862 4.38176 22.3604 4.10193C22.3391 4.07563 22.3108 4.0391 22.3314 4.00257C22.3995 3.8867 22.5046 3.79672 22.63 3.74685C22.7248 3.70557 22.7914 3.78046 22.8506 3.84C23.0402 4.02169 23.1981 4.23341 23.3179 4.46651Z" fill="white"/>
<path d="M5.70195 4.92095C5.64937 4.84862 5.57914 4.78177 5.58208 4.66998C5.58723 4.65099 5.59348 4.62213 5.60377 4.59181C5.71849 4.27545 5.91373 4.01316 6.15972 3.78813C6.27995 3.67854 6.3682 3.71178 6.55645 3.89772C6.65573 3.99563 6.60168 4.06905 6.53513 4.14869C6.33584 4.38943 6.17222 4.65391 6.00492 4.91584C5.88579 5.10361 5.83321 5.10178 5.70195 4.92095Z" fill="white"/>
<path d="M7.8327 7.22532C7.80029 7.24182 7.76613 7.25468 7.73085 7.26367V7.2644C7.61393 7.26404 7.56098 7.19536 7.51134 7.12559C7.45692 7.04924 7.5198 7.00211 7.56466 6.95499C7.81876 6.68465 8.0999 6.44071 8.40372 6.22693C8.50778 6.15423 8.61772 6.10163 8.72435 6.23241C8.78722 6.30876 8.80303 6.38255 8.73133 6.45817C8.45777 6.74494 8.17318 7.01672 7.8327 7.22532Z" fill="white"/>
<path d="M21.4387 7.13691C21.3864 7.20742 21.335 7.275 21.2048 7.25235C21.1151 7.23079 21.0199 7.16212 20.9272 7.09088C20.6962 6.91108 20.4753 6.71888 20.2654 6.51516C20.1782 6.43296 20.1444 6.35223 20.2264 6.24592C20.304 6.14546 20.3915 6.13012 20.497 6.19588C20.847 6.4147 21.139 6.70037 21.4273 6.99079C21.4384 6.99911 21.4477 7.0097 21.4544 7.02186C21.4611 7.03402 21.4652 7.04746 21.4662 7.06129C21.4673 7.07512 21.4654 7.08901 21.4607 7.10206C21.4559 7.1151 21.4484 7.12698 21.4387 7.13691Z" fill="white"/>
<path d="M23.8176 4.0559C23.8239 4.06614 23.8284 4.07739 23.8308 4.08914V4.08951C23.8338 4.13262 23.6385 4.41829 23.5977 4.42961C23.5433 4.44532 23.5194 4.40404 23.4951 4.37226C23.3017 4.11456 23.0939 3.86783 22.8726 3.63324C22.8337 3.59269 22.8101 3.55287 22.8653 3.51269C22.9333 3.46374 22.9789 3.34684 23.0892 3.4031C23.39 3.55506 23.6018 3.80859 23.8176 4.0559Z" fill="white"/>
<path d="M5.49494 4.34157C5.46883 4.37956 5.4475 4.42815 5.39529 4.43582C5.30521 4.43107 5.12688 4.09535 5.17725 4.02595C5.33959 3.79719 5.54093 3.5984 5.77217 3.43853C5.88248 3.36401 5.96889 3.37131 6.05971 3.47104C6.16082 3.58246 6.05493 3.6336 6.00051 3.69461C5.8198 3.90059 5.65101 4.11659 5.49494 4.34157Z" fill="white"/>
<path d="M23.4951 3.00089C23.4863 2.94354 23.7202 2.71887 23.7966 2.71887V2.71741C23.8317 2.73227 23.8657 2.74936 23.8985 2.76856C23.9916 2.82627 24.0838 2.88558 24.175 2.94646C24.5015 3.16492 24.5059 3.21496 24.2485 3.50721C24.1956 3.56749 24.1573 3.5726 24.0981 3.52292C23.9114 3.3662 23.7224 3.21241 23.5352 3.05642C23.5161 3.04278 23.502 3.02327 23.4951 3.00089Z" fill="white"/>
<path d="M5.03937 2.77915C5.18314 2.69659 5.43647 2.82664 5.45486 2.98884V2.98738C5.46037 3.0334 5.4203 3.04509 5.39198 3.06628C5.20814 3.20583 5.0254 3.3472 4.8695 3.51853C4.81471 3.58064 4.78272 3.58721 4.72242 3.50977C4.46467 3.1788 4.46394 3.1609 4.80883 2.92527L4.81203 2.92313C4.88635 2.87342 4.96108 2.82345 5.03937 2.77915Z" fill="white"/>
<path d="M20.9195 7.31774C20.9337 7.33586 20.9454 7.35575 20.9544 7.37692C20.9287 7.48541 20.8606 7.53875 20.7566 7.53071C20.6835 7.52065 20.6159 7.48702 20.5639 7.435C20.3695 7.26038 20.1883 7.07186 20.0216 6.87097C19.9832 6.82417 19.9542 6.77047 19.9363 6.71279C19.9149 6.64228 19.9514 6.58274 20.0098 6.54109C20.0293 6.52557 20.0539 6.51792 20.0788 6.51968C20.1037 6.52144 20.127 6.53248 20.144 6.55059C20.4036 6.80509 20.6621 7.0608 20.9195 7.31774Z" fill="white"/>
<path d="M8.29678 7.49499C8.2509 7.51445 8.20137 7.52401 8.15149 7.52304L8.15222 7.52487C8.12241 7.52021 8.09433 7.50797 8.07068 7.48935C8.04704 7.47072 8.02864 7.44634 8.01728 7.41856C7.98603 7.35536 8.02941 7.31774 8.06912 7.27792C8.29672 7.04924 8.52212 6.818 8.75229 6.59151C8.80524 6.54 8.86186 6.45561 8.95231 6.52575C9.03688 6.59041 9.03468 6.6832 8.99166 6.77306C8.97246 6.8113 8.94768 6.84651 8.91812 6.87754C8.75241 7.05606 8.58561 7.2336 8.41769 7.41016C8.38389 7.44662 8.34267 7.47553 8.29678 7.49499Z" fill="white"/>
<path d="M24.0856 3.76439C24.0285 3.86454 23.9579 3.95648 23.8757 4.03764C23.707 3.80087 23.5059 3.58865 23.2782 3.40711C23.2194 3.36145 23.1756 3.31177 23.2447 3.2493C23.3139 3.18683 23.3517 3.04035 23.4845 3.11779C23.7121 3.25113 23.9047 3.4283 24.0886 3.61826C24.1393 3.67123 24.1173 3.71507 24.0856 3.76439Z" fill="white"/>
<path d="M5.4111 3.14665C5.4464 3.12363 5.48391 3.10391 5.51773 3.08418V3.08491C5.624 3.10647 5.67694 3.1777 5.72989 3.25551C5.78284 3.33332 5.69606 3.35853 5.65635 3.39506C5.47067 3.5631 5.28609 3.7326 5.15335 3.94667C5.09783 4.03618 5.05849 4.01864 5.00922 3.94923L4.98753 3.91964C4.80116 3.68138 4.80184 3.68073 5.01495 3.47585L5.01768 3.47323C5.13874 3.35292 5.27041 3.24362 5.4111 3.14665Z" fill="white"/>
<path d="M4.28451 2.74591C4.28451 2.74594 4.28452 2.74597 4.28452 2.746C4.28946 2.58266 4.49905 2.31698 4.63786 2.27101C4.72316 2.24324 4.77463 2.28343 4.83347 2.33567C4.8923 2.3879 4.94157 2.45074 4.99892 2.50517C5.06658 2.5691 5.07173 2.61366 4.98201 2.66846C4.85295 2.74627 4.73088 2.83906 4.60881 2.92893C4.43783 3.05459 4.37716 3.03779 4.30657 2.83541C4.29761 2.80602 4.29025 2.77618 4.28452 2.746C4.28452 2.74621 4.28451 2.74643 4.28451 2.74664V2.74591Z" fill="white"/>
<path d="M24.3331 2.2805C24.4791 2.32324 24.6754 2.59942 24.6776 2.7554V2.75614C24.6681 2.85258 24.6339 2.9534 24.5386 3.0071C24.4574 3.05532 24.4121 2.96071 24.3548 2.92418C24.2445 2.85294 24.1375 2.76783 24.0239 2.69988C23.9103 2.63193 23.8816 2.56362 23.9919 2.47083C24.0937 2.38571 24.1614 2.23082 24.3331 2.2805Z" fill="white"/>
<path d="M16.8624 17.6786C16.3418 17.0398 15.7603 16.4526 15.1258 15.9251C15.6573 16.5541 16.238 17.1404 16.8624 17.6786Z" fill="white"/>
<path d="M17.1216 12.7484L17.5878 12.0379C17.6919 12.1796 17.6842 12.2783 17.5514 12.3882C17.4099 12.5044 17.3055 12.6626 17.1216 12.7484Z" fill="white"/>
<path d="M17.9305 10.3282C17.9299 10.3289 17.9292 10.3295 17.9285 10.3301C17.73 10.6571 17.4893 10.9569 17.2124 11.2218C17.3903 10.877 17.6451 10.5923 17.9285 10.3301C17.9292 10.329 17.9299 10.3279 17.9305 10.3268V10.3282Z" fill="white"/>
<path d="M13.2973 14.9278C13.1811 15.0444 13.0524 15.132 12.8502 15.1503V15.1492C12.9873 15.0042 13.1263 14.9344 13.2973 14.9278Z" fill="white"/>
</svg>
