<svg width="48" height="48" viewBox="0 0 48 48" fill="none" xmlns="http://www.w3.org/2000/svg">
<path d="M4.21539 12.5773L24 1.1547L43.7846 12.5773V35.4226L24 46.8453L4.21539 35.4226V12.5773Z" fill="#171E2F" stroke="#FFD644" stroke-width="2"/>
<path d="M23.9998 27.5C23.0716 27.5 22.1813 27.1313 21.525 26.4749C20.8686 25.8185 20.4998 24.9283 20.4998 24C20.4998 23.0717 20.8686 22.1815 21.525 21.5251C22.1813 20.8688 23.0716 20.5 23.9998 20.5C24.9281 20.5 25.8183 20.8688 26.4747 21.5251C27.1311 22.1815 27.4998 23.0717 27.4998 24C27.4998 24.9283 27.1311 25.8185 26.4747 26.4749C25.8183 27.1313 24.9281 27.5 23.9998 27.5ZM31.4298 24.97C31.4698 24.65 31.4998 24.33 31.4998 24C31.4998 23.67 31.4698 23.34 31.4298 23L33.5398 21.37C33.7298 21.22 33.7798 20.95 33.6598 20.73L31.6598 17.27C31.5398 17.05 31.2698 16.96 31.0498 17.05L28.5598 18.05C28.0398 17.66 27.4998 17.32 26.8698 17.07L26.4998 14.42C26.4795 14.3022 26.4182 14.1954 26.3267 14.1186C26.2351 14.0417 26.1194 13.9997 25.9998 14H21.9998C21.7498 14 21.5398 14.18 21.4998 14.42L21.1298 17.07C20.4998 17.32 19.9598 17.66 19.4398 18.05L16.9498 17.05C16.7298 16.96 16.4598 17.05 16.3398 17.27L14.3398 20.73C14.2098 20.95 14.2698 21.22 14.4598 21.37L16.5698 23C16.5298 23.34 16.4998 23.67 16.4998 24C16.4998 24.33 16.5298 24.65 16.5698 24.97L14.4598 26.63C14.2698 26.78 14.2098 27.05 14.3398 27.27L16.3398 30.73C16.4598 30.95 16.7298 31.03 16.9498 30.95L19.4398 29.94C19.9598 30.34 20.4998 30.68 21.1298 30.93L21.4998 33.58C21.5398 33.82 21.7498 34 21.9998 34H25.9998C26.2498 34 26.4598 33.82 26.4998 33.58L26.8698 30.93C27.4998 30.67 28.0398 30.34 28.5598 29.94L31.0498 30.95C31.2698 31.03 31.5398 30.95 31.6598 30.73L33.6598 27.27C33.7798 27.05 33.7298 26.78 33.5398 26.63L31.4298 24.97Z" fill="#FFD644"/>
</svg>
