<svg width="237" height="110" viewBox="0 0 237 110" fill="none" xmlns="http://www.w3.org/2000/svg">
<ellipse cx="194.87" cy="80.9361" rx="1.05908" ry="1.0763" transform="rotate(180 194.87 80.9361)" fill="#D354FF"/>
<ellipse cx="40.6114" cy="39.8474" rx="1.05908" ry="1.0763" fill="#D354FF"/>
<ellipse cx="166.275" cy="72.329" rx="1.05908" ry="1.0763" transform="rotate(180 166.275 72.329)" fill="#D354FF"/>
<ellipse cx="69.2054" cy="48.4553" rx="1.05908" ry="1.0763" fill="#D354FF"/>
<ellipse cx="1.58866" cy="78.2527" rx="1.58862" ry="1.61446" transform="rotate(180 1.58866 78.2527)" fill="#D354FF"/>
<ellipse cx="233.891" cy="42.5312" rx="1.58862" ry="1.61446" fill="#D354FF"/>
<ellipse cx="149.006" cy="66.616" rx="0.52954" ry="1.0763" transform="rotate(180 149.006 66.616)" fill="#D354FF"/>
<ellipse cx="83.5027" cy="45.2294" rx="0.52954" ry="1.0763" fill="#D354FF"/>
<ellipse cx="157.803" cy="86.3184" rx="1.05908" ry="1.0763" transform="rotate(180 157.803 86.3184)" fill="#D354FF"/>
<ellipse cx="77.678" cy="34.4659" rx="1.05908" ry="1.0763" fill="#D354FF"/>
<ellipse cx="133.973" cy="73.9404" rx="0.52954" ry="0.538152" transform="rotate(180 133.973 73.9404)" fill="#D354FF"/>
<ellipse cx="101.509" cy="46.8452" rx="0.52954" ry="0.538152" fill="#D354FF"/>
<ellipse cx="121.264" cy="69.6369" rx="1.58862" ry="1.61446" transform="rotate(180 121.264 69.6369)" fill="#D354FF"/>
<ellipse cx="218.7" cy="75.018" rx="1.58862" ry="1.61446" transform="rotate(180 218.7 75.018)" fill="#D354FF"/>
<ellipse cx="16.7814" cy="45.7676" rx="1.58862" ry="1.61446" fill="#D354FF"/>
<ellipse cx="140.858" cy="92.7801" rx="1.05908" ry="1.0763" transform="rotate(180 140.858 92.7801)" fill="#D354FF"/>
<ellipse cx="94.6234" cy="28.004" rx="1.05908" ry="1.0763" fill="#D354FF"/>
<ellipse cx="0.52954" cy="0.538152" rx="0.52954" ry="0.538152" transform="matrix(1 0 0 -1 38.1279 83.095)" fill="#D354FF"/>
<ellipse cx="0.52954" cy="0.538152" rx="0.52954" ry="0.538152" transform="matrix(-1 0 0 1 197.354 37.6913)" fill="#D354FF"/>
<ellipse cx="1.58862" cy="1.61446" rx="1.58862" ry="1.61446" transform="matrix(1 0 0 -1 43.4235 87.3946)" fill="#D354FF"/>
<ellipse cx="1.58862" cy="1.61446" rx="1.58862" ry="1.61446" transform="matrix(-1 0 0 1 192.059 33.3896)" fill="#D354FF"/>
<ellipse cx="1.05908" cy="1.0763" rx="1.05908" ry="1.0763" transform="matrix(1 0 0 -1 58.2498 90.6282)" fill="#D354FF"/>
<ellipse cx="1.05908" cy="1.0763" rx="1.05908" ry="1.0763" transform="matrix(1 0 0 -1 62.4489 22.2336)" fill="#D354FF"/>
<ellipse cx="1.05908" cy="1.0763" rx="1.05908" ry="1.0763" transform="matrix(-1 0 0 1 177.231 30.1549)" fill="#D354FF"/>
<ellipse cx="1.58862" cy="1.61446" rx="1.58862" ry="1.61446" transform="matrix(1 0 0 -1 63.5455 76.6331)" fill="#D354FF"/>
<ellipse cx="1.58862" cy="1.61446" rx="1.58862" ry="1.61446" transform="matrix(1 0 0 -1 19.6122 6.96863)" fill="#D354FF"/>
<ellipse cx="1.58862" cy="1.61446" rx="1.58862" ry="1.61446" transform="matrix(-1 0 0 1 171.936 44.1531)" fill="#D354FF"/>
<ellipse cx="0.52954" cy="1.0763" rx="0.52954" ry="1.0763" transform="matrix(1 0 0 -1 94.2589 73.405)" fill="#D354FF"/>
<ellipse cx="0.52954" cy="1.0763" rx="0.52954" ry="1.0763" transform="matrix(-1 0 0 1 141.223 47.379)" fill="#D354FF"/>
<ellipse cx="0.52954" cy="1.0763" rx="0.52954" ry="1.0763" transform="matrix(-1 0 0 1 142 63.8474)" fill="#D354FF"/>
<ellipse cx="1.58862" cy="1.61446" rx="1.58862" ry="1.61446" transform="matrix(1 0 0 -1 113.323 110)" fill="#D354FF"/>
<ellipse cx="1.58862" cy="1.61446" rx="1.58862" ry="1.61446" transform="matrix(-1 0 0 1 122.159 10.7834)" fill="#D354FF"/>
<ellipse cx="1.58862" cy="1.61446" rx="1.58862" ry="1.61446" transform="matrix(1 0 0 -1 113.323 85.2489)" fill="#D354FF"/>
<ellipse cx="1.58862" cy="1.61446" rx="1.58862" ry="1.61446" transform="matrix(-1 0 0 1 122.159 35.5374)" fill="#D354FF"/>
<ellipse cx="1.58862" cy="1.61446" rx="1.58862" ry="1.61446" transform="matrix(-1 0 0 1 105 54.7711)" fill="#D354FF"/>
<ellipse cx="3.79808" cy="3.81599" rx="3.79808" ry="3.81599" transform="matrix(1 0 0 -1 75.9615 102.368)" fill="#D354FF"/>
<ellipse cx="1.58862" cy="1.61446" rx="1.58862" ry="1.61446" transform="matrix(-1 0 0 1 153.93 23.7017)" fill="#D354FF"/>
<ellipse cx="0.52954" cy="0.538152" rx="0.52954" ry="0.538152" transform="matrix(1 0 0 -1 86.8444 83.0943)" fill="#D354FF"/>
<ellipse cx="0.52954" cy="0.538152" rx="0.52954" ry="0.538152" transform="matrix(-1 0 0 1 148.637 37.6913)" fill="#D354FF"/>
<ellipse cx="174.929" cy="2.82051" rx="2.82143" ry="2.82051" fill="#D354FF"/>
</svg>
