<svg width="40" height="56" viewBox="0 0 40 56" fill="none" xmlns="http://www.w3.org/2000/svg">
<path d="M39.548 56C26.4949 46.6235 13.5042 37.2542 0.398562 27.9714C13.5181 18.7343 26.4899 9.35363 39.5678 -1.55958e-09C39.5777 0.219681 39.5867 0.335248 39.5877 0.451856C39.5877 4.63309 39.591 8.81398 39.5976 12.9945C39.5976 13.2538 39.5619 13.4339 39.326 13.5942C36.3883 15.5932 33.5378 17.7255 30.6616 19.8171C27.5561 22.0778 24.4505 24.3385 21.345 26.5991C20.8574 26.9552 20.3866 27.3394 19.8871 27.6746C19.5798 27.8829 19.6383 27.9766 19.899 28.1681C23.0775 30.5013 26.2422 32.8533 29.4227 35.1844C32.7099 37.5922 36.0044 39.9903 39.3062 42.3787C39.4965 42.5161 39.6035 42.6525 39.6035 42.9191C39.5943 47.1871 39.5916 51.4558 39.5956 55.7251C39.5852 55.8177 39.5693 55.9095 39.548 56Z" fill="#FFD644"/>
<path d="M39.5608 29.1229L39.5608 42.3038C38.5895 41.6135 37.6638 40.9669 36.749 40.3037C34.7152 38.8305 32.6854 37.3448 30.6516 35.8757C30.4008 35.6946 30.3166 35.604 30.6258 35.3864C33.5331 33.3451 36.4325 31.2975 39.3239 29.2437C39.4007 29.1989 39.4798 29.1586 39.5608 29.1229Z" fill="#FFD644"/>
<path d="M39.555 13.6452L39.555 26.824C39.2041 26.5866 38.9018 26.3919 38.6094 26.1816C35.983 24.2972 33.3578 22.4127 30.734 20.5282C30.5694 20.4095 30.3058 20.3366 30.6616 20.0816C33.5983 17.9628 36.5261 15.8368 39.555 13.6452Z" fill="#FFD644"/>
</svg>
