<svg width="48" height="48" viewBox="0 0 48 48" fill="none" xmlns="http://www.w3.org/2000/svg">
<path d="M4.21539 12.5773L24 1.1547L43.7846 12.5773V35.4226L24 46.8453L4.21539 35.4226V12.5773Z" fill="#171E2F" stroke="#2C3B5E" stroke-width="2"/>
<path d="M15.1192 12.8439C15.1038 12.8435 15.0885 12.8436 15.0732 12.8441C14.8827 12.8505 14.6933 12.9207 14.5393 13.0567C14.1874 13.3676 14.1541 13.9049 14.465 14.2568C14.6709 14.49 14.9762 14.5824 15.2612 14.5283L17.9723 17.5974L15.6111 19.6833L16.7449 20.9667C17.1991 19.9651 17.7881 19.1159 18.4993 18.405L18.8232 20.1013C19.9994 19.8065 21.1592 19.6062 22.3091 19.4979L21.1883 18.229L19.3761 17.6439C20.1784 17.0392 21.098 16.5671 22.1239 16.2154L20.99 14.9317L18.6289 17.0175L15.9139 13.9439C15.9978 13.6704 15.9428 13.3612 15.7395 13.1311C15.5755 12.9454 15.3486 12.8484 15.1191 12.8438L15.1192 12.8439ZM33.1378 12.8439C32.9083 12.8485 32.6814 12.9455 32.5175 13.1311C32.3142 13.3612 32.2591 13.6704 32.343 13.944L29.628 17.0175L27.2669 14.9317L26.1331 16.2154C27.1589 16.5671 28.0784 17.0391 28.8809 17.6438L27.0687 18.229L25.9786 19.4629C27.1369 19.5503 28.2927 19.7304 29.4529 20.0001L29.7575 18.405C30.4688 19.1159 31.0578 19.9651 31.5121 20.9667L32.6457 19.6832L30.2845 17.5974L32.9957 14.5283C33.2807 14.5823 33.586 14.4899 33.792 14.2568C34.1027 13.9048 34.0695 13.3675 33.7176 13.0567C33.5636 12.9207 33.3742 12.8504 33.1837 12.8441C33.1684 12.8436 33.1531 12.8435 33.1378 12.8438V12.8439ZM24.3991 20.274C22.5447 20.2694 20.6741 20.519 18.7444 21.0285C18.6485 25.2682 20.3609 30.8417 24.2977 33.2115C28.1084 30.9085 30.0353 25.2474 29.9486 21.028C28.0853 20.536 26.2497 20.2786 24.399 20.274H24.3991ZM18.9065 27.4693L14.8346 32.0789L14.2628 35.0739L17.1643 34.1367L20.3748 30.5023C19.772 29.5597 19.2851 28.5321 18.9065 27.4693ZM29.6035 27.7557C29.1961 28.7981 28.6858 29.8011 28.0704 30.7155L31.0926 34.1367L33.994 35.0739L33.4222 32.0789L29.6034 27.7556L29.6035 27.7557Z" fill="#848E9C"/>
</svg>
