<svg xmlns="http://www.w3.org/2000/svg" width="48" height="48" viewBox="0 0 48 48" fill="none"><path fill="#171E2F" stroke="#FFD644" stroke-width="2" d="M4.215 12.577 24 1.155l19.785 11.422v22.846L24 46.845 4.215 35.423V12.577Z"/><path fill="#848E9C" d="M25.88 23.384c-.005-1.003-.909-1.865-1.947-1.86-1.017.005-1.882.865-1.875 1.865.007 1.023.895 1.899 1.915 1.889 1.045-.011 1.912-.872 1.907-1.894Zm-1.91-.96.059.051c.292.285.582.573.876.857.066.063.029.101-.017.146-.275.268-.551.536-.824.807-.065.064-.107.068-.176 0a44.52 44.52 0 0 0-.831-.8c-.066-.062-.078-.107-.01-.174.281-.271.558-.546.838-.82a.979.979 0 0 1 .085-.068v.001Z"/><path fill="#fff" d="M23.965 33.68c-.309-.552-.598-1.066-.882-1.582-.044-.08-.037-.173-.037-.262 0-1.327-.002-2.653.002-3.982 0-.142-.034-.253-.145-.345-.231-.191-.461-.384-.635-.53.037.192.098.479.147.767.098.58.148 1.165.149 1.751v2.524c-.004.166.032.331.107.481l1.25 2.413c.013.026.031.05.053.085.106-.12.158-.26.226-.391.358-.687.712-1.377 1.07-2.062.083-.159.125-.335.122-.513-.005-.604.003-1.208-.005-1.813-.014-1.12.024-2.237.287-3.352-.244.249-.492.494-.732.747-.057.06-.033.147-.033.223 0 1.286-.004 2.571 0 3.857.002.213-.055.423-.166.607-.204.35-.393.71-.59 1.064-.051.093-.11.183-.188.313ZM23.984 13.418c.177.31.33.629.53.915.327.468.422.969.403 1.529-.031.988-.003 1.978-.012 2.968-.002.2.05.35.207.482.194.162.372.34.567.52.016-.092-.024-.18-.045-.265a9.237 9.237 0 0 1-.246-2.15c-.006-.8-.004-1.6 0-2.4a.963.963 0 0 0-.098-.446l-1.25-2.474c-.013-.025-.03-.048-.06-.097-.097.185-.186.35-.272.515-.33.647-.661 1.296-.996 1.94a1.344 1.344 0 0 0-.153.65c.006.634 0 1.268.002 1.902.005.91-.073 1.81-.29 2.697-.008.034-.011.07-.02.125.137-.056.2-.168.299-.235.415-.285.52-.661.503-1.146-.037-1.047-.007-2.097-.01-3.145a.995.995 0 0 1 .145-.523c.218-.37.419-.75.63-1.124.044-.077.077-.162.166-.238ZM20.057 21.785c-.252.05-.452.094-.653.13-.908.166-1.828.193-2.745.146-.73-.035-1.38.102-2 .482-.5.306-1.041.55-1.566.817-.11.056-.134.09-.007.155.811.414 1.622.83 2.431 1.248a.76.76 0 0 0 .357.065c.882.006 1.764-.028 2.643.033.506.038 1.008.108 1.504.21-.242-.243-.466-.471-.695-.695-.04-.04-.105-.021-.16-.021-1.004 0-2.007 0-3.011.002a.873.873 0 0 1-.467-.128 42.168 42.168 0 0 0-1.232-.705c-.137-.076-.138-.114 0-.19.41-.223.816-.454 1.22-.687.121-.07.26-.107.401-.104 1.022.004 2.045.005 3.067.006.054 0 .113.016.157-.027.241-.233.48-.465.756-.737ZM35 23.433l-1.184-.61c-.404-.207-.813-.41-1.217-.62a1.237 1.237 0 0 0-.58-.14c-.887-.006-1.776.042-2.662-.04-.462-.043-.918-.12-1.393-.192.139.135.292.258.411.407.207.259.462.324.795.315.9-.024 1.8-.01 2.7-.01.08-.006.159.009.23.042l1.541.83c-.195.119-.37.228-.55.332-.3.173-.604.34-.9.517a.674.674 0 0 1-.364.096c-.998-.003-1.996 0-2.994-.003a.396.396 0 0 0-.308.12c-.18.184-.37.356-.54.567.224-.036.447-.077.672-.11.894-.13 1.797-.142 2.694-.099a3.14 3.14 0 0 0 1.807-.445c.58-.342 1.195-.623 1.842-.957Z"/><path fill="#fff" d="M23.692 28.723c0 .966.004 1.931-.003 2.897 0 .15.043.188.194.185.364-.008.364 0 .364-.351 0-1.878-.002-3.756.004-5.634 0-.162-.042-.213-.213-.205-.345.016-.347.006-.347.336v2.773h.002ZM23.692 18.19c0 .942.003 1.885-.004 2.824 0 .15.043.189.195.183.364-.015.367-.007.367-.352 0-1.835-.002-3.67.003-5.505 0-.146-.048-.178-.188-.176-.372.005-.372 0-.372.363l-.002 2.664ZM28.987 23.165c-.882 0-1.764.002-2.646-.003-.138 0-.191.026-.188.174.01.386 0 .387.407.387 1.684 0 3.368-.003 5.052.005.181 0 .21-.06.207-.213-.008-.347 0-.348-.353-.348h-2.479v-.002ZM18.991 23.722c.869 0 1.738-.003 2.606.004.144 0 .188-.036.186-.178-.004-.384.003-.384-.387-.384-1.676 0-3.352.003-5.028-.003-.172 0-.202.051-.198.2.01.358.003.359.38.359h2.441v.002ZM18.9 17.94c-.028-.03-.052-.056-.077-.08-1.252-1.215-2.505-2.43-3.76-3.643-.046-.046-.086-.139-.173-.098a.54.54 0 0 0-.22.21c-.026.04.025.07.053.102 1.231 1.276 2.43 2.581 3.629 3.885.039.043.077.107.147.039.121-.116.241-.235.36-.353a.35.35 0 0 0 .04-.063ZM33.324 14.329c-.045-.096-.127-.15-.203-.207-.076-.056-.108.026-.147.062-.918.888-1.836 1.777-2.752 2.666-.35.34-.7.68-1.056 1.014-.09.084-.104.142-.003.225.12.1.223.285.348.297.133.013.22-.191.327-.303 1.132-1.214 2.262-2.429 3.39-3.645.033-.035.062-.072.096-.11ZM14.92 32.512c.036-.032.073-.062.106-.094l2.936-2.789c.284-.27.565-.542.855-.805.106-.096.103-.151 0-.249-.34-.323-.337-.33-.647.005-1.121 1.207-2.257 2.4-3.406 3.582-.042.043-.127.083-.063.16.064.076.12.145.218.19ZM29.529 28.276c-.074.064-.147.126-.216.191-.242.226-.243.228-.009.453l3.638 3.488c.095.091.155.118.264.013.108-.105.105-.166 0-.273a153.65 153.65 0 0 1-3.55-3.768c-.033-.038-.059-.087-.127-.104ZM25.833 22.134c.073-.017.11-.065.151-.107l1.939-1.943c.22-.222.436-.45.659-.669.07-.069.087-.12 0-.185a.837.837 0 0 1-.09-.09c-.23-.236-.235-.241-.464-.016-.825.81-1.644 1.625-2.47 2.434-.112.11-.135.192-.003.299.08.063.143.146.214.22l.064.057ZM19.771 18.929c-.09.012-.112.06-.144.093-.101.101-.281.19-.277.31.004.103.168.204.265.3.792.79 1.587 1.578 2.376 2.372.098.098.149.097.243-.003.285-.302.29-.299 0-.59L19.82 19a.35.35 0 0 1-.048-.071ZM19.66 27.757a.22.22 0 0 0 .117-.086c.868-.85 1.73-1.703 2.6-2.552.097-.093.077-.142 0-.229-.277-.306-.276-.31-.572-.026-.814.782-1.635 1.563-2.421 2.374-.082.084-.088.132 0 .213.097.098.189.2.275.306ZM25.843 24.595c-.046.055-.083.101-.123.145-.266.284-.267.286.013.56.811.789 1.624 1.576 2.432 2.369.1.098.164.116.255-.002.08-.104.246-.198.243-.293-.003-.095-.168-.185-.262-.278l-2.396-2.352c-.046-.046-.096-.088-.162-.15ZM17.951 21.868a.171.171 0 0 1 .029-.002c.397.041.6-.11.698-.507.12-.485.402-.913.724-1.306.081-.098.074-.164 0-.261-.297-.389-.296-.392-.602-.013a4.627 4.627 0 0 0-.941 1.925c-.017.075-.077.195.092.164ZM30.09 21.8a5.035 5.035 0 0 0-.662-1.585 5.48 5.48 0 0 0-.503-.656c-.068-.078-.104-.086-.176 0-.303.36-.306.356-.046.736.296.429.523.899.672 1.393.029.094.067.143.171.145.147.004.294.016.441.03.078.007.124-.005.103-.063ZM18.163 25.053c-.35-.013-.35-.013-.241.318.22.669.561 1.27 1.06 1.785.098.102.146.099.23-.014.242-.322.247-.318.02-.637-.27-.377-.498-.777-.63-1.217-.055-.186-.143-.254-.328-.235a1.039 1.039 0 0 1-.11 0ZM29.754 25.043c-.33.018-.33.018-.447.329-.17.459-.414.888-.724 1.271-.08.099-.095.168-.011.277.27.356.265.359.567.017a4.392 4.392 0 0 0 .921-1.72c.043-.148.01-.192-.142-.173-.055.003-.11.003-.164 0ZM22.357 29.154a.205.205 0 0 1-.006-.033c.027-.423-.12-.697-.593-.805-.342-.078-.643-.284-.925-.497-.1-.076-.163-.068-.24.02-.058.062-.12.12-.184.173-.2.184-.203.188.011.344a5.13 5.13 0 0 0 1.8.853c.061.014.157.072.137-.055ZM25.601 17.61a.271.271 0 0 1 .003.027c-.012.388.093.665.55.778.362.09.686.307.99.527.07.05.114.05.167-.015.04-.044.084-.086.129-.125.287-.274.288-.276-.05-.503a5.845 5.845 0 0 0-1.637-.77c-.09-.026-.18-.061-.152.08ZM25.653 29.238l.073-.02a5.45 5.45 0 0 0 1.866-.885c.112-.085.175-.153.02-.262-.117-.083-.201-.244-.325-.275-.132-.032-.241.132-.365.203a4.8 4.8 0 0 1-1.12.48c-.08.023-.125.052-.134.139-.018.178-.047.352-.073.528-.006.048-.021.099.058.092ZM22.357 17.606c.023-.115-.037-.114-.104-.093-.145.045-.291.089-.434.14a6.46 6.46 0 0 0-1.495.782c-.104.071-.11.122-.015.202.124.107.223.27.364.316.156.05.268-.14.404-.217a5.161 5.161 0 0 1 1.064-.471c.104-.03.152-.08.161-.184.012-.164.037-.328.055-.475Z"/></svg>