<svg xmlns="http://www.w3.org/2000/svg" width="48" height="48" viewBox="0 0 48 48" fill="none"><path fill="#171E2F" stroke="#2C3B5E" stroke-width="2" d="M4.215 12.577 24 1.155l19.785 11.422v22.846L24 46.845 4.215 35.423V12.577Z"/><path fill="#848E9C" d="M20.408 31.574c.02.063.045.12 0 .18.648.326 1.342.528 2.035.73l.02.006c.491.143.984.281 1.475.424.057.016.109.035.17.016.974-.3 1.967-.53 2.924-.879 1.631-.595 2.893-1.638 3.914-3.002a9.527 9.527 0 0 0 1.834-4.452c.345-2.434-.115-4.688-1.58-6.72-.64-.887-1.425-1.632-2.26-2.335a.608.608 0 0 1-.121-.127c.656.42 1.21.956 1.771 1.5l.018.018c-.725-1.005-.962-2.16-1.094-3.344.306.206.6.45.822.764.468.663.69 1.387.531 2.196a.319.319 0 0 1-.035.116c-.174.268-.098.464.11.704a8.193 8.193 0 0 1 1.875 3.816c.485 2.462.264 4.854-1.052 7.046-1.4 2.332-3.492 3.83-6.163 4.539-.386.102-.776.193-1.166.29.013.057.067.048.106.062.306.104.61.215.918.313.343.108.588.328.787.612.217.31.427.626.76.862-.127.063-.249.065-.366.087-.068.013-.076-.037-.093-.08-.158-.393-.43-.714-.698-1.037a.468.468 0 0 0-.154-.115c-.504-.26-1.043-.427-1.588-.576a.275.275 0 0 0-.158 0c-.494.156-.99.305-1.457.53-.17.083-.316.205-.425.357-.202.27-.427.527-.536.852-.021.065-.054.082-.118.07-.108-.023-.217-.04-.372-.068.44-.3.649-.74.958-1.099.094-.111.212-.201.346-.263.415-.195.852-.332 1.293-.5-.211-.052-.42-.11-.633-.156-2.25-.476-4.121-1.595-5.675-3.233-1.25-1.315-1.926-2.902-2.22-4.66a10.24 10.24 0 0 1-.002-3.472 8.788 8.788 0 0 1 1.913-4.118c.223-.27.27-.476.16-.817-.254-.79-.023-1.528.428-2.204.227-.342.534-.607.872-.815-.147 1.168-.349 2.32-1.069 3.317.58-.586 1.176-1.133 1.883-1.552-.224.185-.45.366-.67.556-1.606 1.383-2.763 3.047-3.272 5.099a8.752 8.752 0 0 0-.162 3.41c.274 1.856.955 3.54 2.186 4.998.793.94 1.714 1.718 2.834 2.26.063.031.13.05.196.075-.017-.198-.132-.347-.282-.461-1.006-.766-1.232-1.779-.987-2.944l.001-.004c.02-.095.04-.19.064-.283.034-.128.071-.256.11-.391.091.025.122.106.172.163.453.518.78 1.098.896 1.777.067.388.022.774-.03 1.156-.038.27-.019.544.056.806ZM13.13 22.085c-.433-.86-.545-1.783-.545-2.75.98.68 1.579 1.591 1.925 2.674.132.42.218.852.256 1.29.019.207.089.403.148.608-.168-.247-.45-.334-.682-.49-.501-.337-.837-.805-1.102-1.332Z"/><path fill="#848E9C" d="m35.424 19.344-.002.001c-.002 1.148-.156 2.234-.792 3.206a2.91 2.91 0 0 1-1.099 1.01c-.16.084-.324.161-.4.278.186-.974.307-2.008.852-2.925a5.275 5.275 0 0 1 1.439-1.569v-.001h.002ZM17.066 32.797c-.255-.153-.493-.333-.77-.52 1.819-.49 3.525-.315 5.134.552-.408.004-.777.22-1.174.347-1.122.357-2.188.218-3.19-.379ZM12.067 23.226c-.026-.122-.042-.247-.067-.398.56.2 1.067.433 1.514.778.575.443.962 1.025 1.275 1.66.157.318.303.64.46.973-.747-.248-1.489-.485-2.08-1.022-.597-.542-.937-1.22-1.102-1.991ZM27.594 33.061c-.293-.123-.59-.238-.919-.243.78-.284 1.522-.671 2.37-.765.914-.1 1.808-.017 2.73.22l-.293.216c-.607.451-1.27.77-2.04.85a3.679 3.679 0 0 1-1.848-.278ZM17.645 30.357c.262.229.49.503.835.638-.284-.001-.546.1-.82.143-.573.09-1.126-.003-1.667-.19a5.21 5.21 0 0 1-1.94-1.206c-.115-.11-.05-.129.052-.157 1.323-.369 2.505-.134 3.54.772ZM33.85 25.846c-.337.144-.686.262-1.043.397.208-.443.404-.872.611-1.296.513-1.044 1.385-1.684 2.468-2.081l.007-.003.06-.02c.016 0 .032.001.047.004a3.767 3.767 0 0 1-.662 1.836c-.375.536-.884.908-1.487 1.163ZM34.116 29.636c-1.292 1.201-2.702 1.878-4.499 1.332.3-.114.503-.347.738-.539.527-.43 1.086-.798 1.77-.94.662-.138 1.31-.07 1.99.147ZM23.49 32.477c.009.069.02.137.034.225-.5-.382-1.052-.672-1.457-1.14-.747-.857-.85-1.818-.483-2.856.034-.093.063-.105.137-.023.986 1.088 1.596 2.343 1.77 3.794ZM24.511 32.725c.175-1.601.793-2.954 1.89-4.147.386 1.015.364 1.946-.286 2.813-.287.382-.662.671-1.067.926-.177.112-.365.21-.537.408ZM13.04 27.519c-.323-.297-.604-.63-.895-.98 1.818-.047 3.116.865 4.242 2.117-.278.133-.59.153-.904.104-.954-.147-1.748-.603-2.443-1.241ZM35.675 26.523c.06-.003.119 0 .213 0-.89 1.115-1.901 1.998-3.36 2.234-.311.054-.631.02-.923-.1.314-.296.611-.596.928-.876a4.888 4.888 0 0 1 3.142-1.258ZM15.008 21.007c-1.158-1.246-1.406-2.664-.704-4.256.49.536.837 1.127.956 1.833.111.658-.004 1.3-.153 1.94-.04.168-.07.34-.1.483ZM33.705 16.756c.647 1.577.49 3.008-.723 4.244-.138-.764-.388-1.55-.243-2.378.125-.715.464-1.321.966-1.866ZM16.266 24.836c.33-.644.835-1.124 1.494-1.477-.09.898-.237 1.76-.622 2.567a5.762 5.762 0 0 1-.457.782c-.159.23-.366.434-.417.723 0 .04-.004.08-.011.121 0-.042.004-.082.011-.121.005-.267-.12-.501-.192-.745-.193-.643-.108-1.26.194-1.85ZM31.775 27.266c-.006.08-.017.16-.026.24-.023-.223-.135-.404-.268-.579-.664-.87-1.005-1.862-1.15-2.927l-.092-.63c.58.3 1.036.704 1.369 1.242.474.764.583 1.563.233 2.404a.819.819 0 0 0-.066.25ZM28.386 28.022c.092-.12.192-.232.313-.378v-.001c.284.93.456 1.82.009 2.715-.148.31-.366.582-.639.796-.16.123-.33.238-.43.429.12-.41.038-.811-.009-1.211-.104-.895.222-1.655.756-2.35ZM32.692 22.123l-.007-.02c-.136-.297-.406-.426-.69-.536-.907-.368-1.632-.96-2.204-1.736-.1-.136-.202-.27-.303-.405.01-.039.044-.034.07-.032.71.045 1.386.2 1.987.594.533.351.875.83.993 1.456.041.219.075.44.147.66l.007.016v.003ZM17.602 19.51c.305-.077.617-.122.932-.137-.585.912-1.313 1.63-2.296 2.077-.075.034-.15.07-.226.1-.268.112-.53.232-.668.514.144-.477.138-.988.44-1.415.445-.631 1.086-.954 1.818-1.14ZM29.776 25.569v.002c.465.453.716.963.841 1.54.122.569.06 1.124-.123 1.672-.045.137-.082.272-.126.414-.044.143-.02.286-.013.433-.165-.637-.676-1.125-.783-1.788-.067-.415-.025-.817.057-1.22.068-.332.158-.66.147-1.052l-.002-.001h.002ZM18.186 28.543c-.183.346-.422.665-.52 1.056.04-.23-.022-.441-.093-.648-.246-.719-.319-1.441-.083-2.177a3.06 3.06 0 0 1 .616-1.081.933.933 0 0 1 .074-.075c.007-.007.02-.007.048-.015 0 .571.22 1.106.248 1.67.02.441-.08.88-.29 1.27ZM32.68 24.421c.023.044.069.08.043.19-.217-.483-.665-.65-1.036-.903a2.64 2.64 0 0 1-1.04-1.322c-.108-.304-.201-.615-.394-.9.077-.018.136.003.195.017a2.816 2.816 0 0 1 1.482.921c.38.454.603 1.016.634 1.603a.935.935 0 0 0 .116.394ZM15.265 24.51c.022-.036.045-.071.07-.105.14-.258.09-.55.156-.817.19-.777.635-1.38 1.332-1.801.282-.174.597-.29.927-.341-.237.404-.333.834-.527 1.238-.195.403-.497.713-.867.963-.096.068-.195.13-.297.188-.279.148-.537.316-.724.57a.699.699 0 0 1-.07.105ZM15.994 18.596c-.835-1.317-.538-2.742.31-3.661.037.45.226.837.268 1.256.07.702-.078 1.364-.373 2-.063.137-.134.269-.205.405ZM32.409 16.248c.217.835.052 1.61-.386 2.339-.708-1.152-.769-2.364-.29-3.624.322.372.553.812.676 1.285ZM27.333 16.82c-.128-.102-.25-.207-.39-.323 1.393-.222 2.687-.148 3.682.969-.37-.015-.75.097-1.142.102a3.271 3.271 0 0 1-2.15-.748ZM21.07 16.48c-1.026 1.08-2.293 1.258-3.659.941.516-.422 1.07-.855 1.801-.968.623-.097 1.242-.045 1.858.027ZM25.902 14.925c.846-.489 2.353.04 3.346 1.143v.001c-.956.063-1.871-.087-2.65-.722-.207-.17-.412-.346-.696-.422ZM18.727 16.117c.542-.615 1.144-1.104 1.96-1.284.47-.102.933-.11 1.418.07-.378.129-.636.396-.938.6-.54.363-1.134.558-1.79.562a4.3 4.3 0 0 0-.65.052v.001ZM29.064 15.269c.063.127.155.24.233.36-.262-.287-.607-.473-.925-.69a4.288 4.288 0 0 1-1.147-1.166c-.187-.277-.34-.581-.663-.772.896-.025 2.195.598 2.416 1.845.025.142.023.296.086.423ZM20.464 13.188a2.23 2.23 0 0 1 .93-.188c-.196.132-.331.307-.443.497a4.707 4.707 0 0 1-1.626 1.634c-.22.134-.435.277-.6.488-.007-.024-.016-.04-.012-.043.209-.215.27-.484.325-.767.154-.804.69-1.302 1.426-1.62ZM28.64 18.265c.566.015 1.11-.247 1.69-.122.47.101.86.32 1.13.716.119.175.266.331.436.46-.313-.22-.654-.135-.99-.128a3.096 3.096 0 0 1-2.222-.836.09.09 0 0 1-.043-.09h-.001ZM18.517 18.157c.285.06.575.093.866.101h-.001a3.002 3.002 0 0 1-1.457.827 2.988 2.988 0 0 1-1.173.082c-.21-.03-.405.024-.596.122.254-.172.369-.455.582-.655.502-.475 1.105-.607 1.78-.477Z"/></svg>