<svg xmlns="http://www.w3.org/2000/svg" width="48" height="48" viewBox="0 0 48 48" fill="none"><path fill="#171E2F" stroke="#2C3B5E" stroke-width="2" d="M4.215 12.577 24 1.155l19.785 11.422v22.846L24 46.845 4.215 35.423V12.577Z"/><g fill="#848E9C" clip-path="url(#a)"><path d="M27.084 16.956c-.632.681-1.218 1.385-1.407 2.396 1.44-1.34 2.772-2.681 3.225-4.657.146-.632.213-1.265.04-1.906-.068-.25-.193-.469-.342-.71.103-.003.138.058.178.103.569.626.788 1.399.881 2.215.152 1.32.024 2.623-.247 3.916a1.355 1.355 0 0 0-.008.155c.297-.366.447-.755.573-1.151.205-.658.31-1.343.311-2.033.003-.19.047-.279.25-.255.146.01.294.012.442.007.337.002.341.002.295.353-.041.296-.089.59-.146.96.262-.397.497-.73.705-1.08.09-.15.19-.2.358-.183l.017.002c.424.047.847.094 1.286.21-.4.474-.713.971-1.098 1.49 1.375-.478 2.485.032 3.603.831-.504.064-.947.129-1.331.37-.385.243-.705.57-1.07.841.48-.042.89-.275 1.32-.491.116.29.168.556-.093.811-.147.144-.249.336-.344.558l.71-.31c-.356 2.25-1.106 4.202-2.957 5.611.027-.16.116-.245.179-.341.816-1.245 1.25-2.609 1.203-4.112-.022-.705-.194-1.362-.735-1.862-.031-.028-.065-.053-.122-.098-.044.24-.049.47-.17.716-.097-.268-.202-.491-.393-.662-.99-.885-2.626-.494-3.1.757a6.178 6.178 0 0 1-.798 1.508c-.28.378-.626.663-1.1.738-.146.023-.172.131-.22.23-.326.662-.792 1.176-1.482 1.451-.075.032-.165.124-.238.053-.073-.07.016-.164.048-.237.26-.582.459-1.18.476-1.833-.103.056-.096.165-.127.248-.139.4-.347.77-.613 1.097a1.49 1.49 0 0 1-.265.253c-.297.215-.383.196-.595-.122-.019.383.05.742-.067 1.142.186-.141.148-.333.239-.459.62.457.596.938-.087 1.762.094.062.176-.058.289-.005-.013.35-.134.689-.195 1.043.23-.31.431-.64.484-1.022.033-.257.174-.32.372-.356.075-.014.147-.01.138.096-.083.992.084 1.996-.13 2.982a2.724 2.724 0 0 1-.28.78 5.786 5.786 0 0 1-.183-1.06c-.02-.201-.072-.27-.266-.159-.154.086-.43.052-.325.404-.115-.19-.3-.009-.384-.106-.192-.221-.215.116-.372.07-.05-.072.09-.274-.129-.3-.139-.015-.244-.121-.38-.16-.136-.038-.113.108-.113.181-.01.342-.03.688.018 1.03.013.087.018.175.034.34a2.5 2.5 0 0 1-.534-1.384c-.055-.724-.026-1.448-.048-2.171a6.383 6.383 0 0 0-.02-.318c-.006-.075-.07-.165.02-.217.09-.052.187-.013.269.045.122.086.17.215.2.358.075.367.237.693.503 1.033-.073-.376-.234-.675-.23-1.029l.34.132c-.289-.337-.48-.648-.569-1.02-.1-.42.105-.705.384-.989l.232.483a3.965 3.965 0 0 1-.04-1.118c-.277.326-.398.333-.704.036-.373-.362-.563-.84-.753-1.316-.045-.113-.078-.231-.12-.363-.079.442.114 1.238.544 2.26-.51-.1-.927-.318-1.26-.698-.223-.254-.28-.645-.492-.858-.211-.214-.582-.25-.826-.473-.547-.498-.896-1.133-1.111-1.825-.25-.805-.826-1.164-1.564-1.282-.8-.128-1.519.07-2.011.799-.004.005-.015.005-.039.014v-.312c-.368.253-.625.55-.743.953-.408 1.396-.24 2.735.398 4.026.206.415.46.801.686 1.203-1.663-1.476-2.662-3.29-2.763-5.591.264.06.44.248.73.335-.137-.232-.247-.424-.361-.611l-.002-.003c-.253-.415-.253-.416-.06-.886.176.131.35.273.522.389.171.116.343.236.562.277-.3-.288-.502-.653-.767-.968-.317-.374-.738-.5-1.219-.521.585-.355 1.14-.772 1.817-.917.417-.087.643 0 1.136.299-.306-.485-.376-1.113-.943-1.48.459-.113.887-.136 1.312-.176.121-.01.186.085.254.163.184.212.318.46.475.697-.03-.223-.055-.446-.09-.668-.028-.183.003-.282.22-.265.261.02.523.02.783 0 .208-.016.264.08.293.265a19 19 0 0 0 .53 2.365c.093.317.2.633.464.938-.145-.805-.297-1.547-.342-2.303-.069-1.15-.084-2.295.391-3.38a2.25 2.25 0 0 1 .72-.924c-.242.34-.401.734-.463 1.149-.119.792.04 1.55.33 2.275.624 1.557 1.722 2.753 2.921 3.904-.043-.547-.528-1.405-1.362-2.465.654.362 1.131.91 1.529 1.561.032-.286-.148-.88-.402-1.377-.218-.428-.508-.807-.791-1.193.543.374 1 .827 1.313 1.43.08-.502-.078-.96-.228-1.421.326.407.506.915.51 1.44.13-.172.143-.393.052-.94.259.267.357.569.4.887.043.385.2.748.451 1.041.292.345.295.817.388 1.245.033.154.047.313.078.52.085-.369.156-.695.236-1.013.077-.311.208-.61.426-.835.217-.225.316-.498.36-.803.045-.322.105-.642.354-.953-.058.358-.062.661.043.998.116-.472.161-.93.354-1.345-.013.41-.073.815-.021 1.292.335-.575.704-1.026 1.221-1.34-.489.637-.957 1.284-1.043 2.132.394-.503.842-.937 1.408-1.233Z"/><path d="M23.064 33.724c-.516-1.867-.995-3.696-1.285-5.58.175.349.358.696.524 1.049.16.346.441.62.789.766.196.09.298.056.385-.14.06-.133.092-.376.34-.177a.146.146 0 0 0 .143-.02c.149-.214.186-.048.246.066.218.415.262.421.612.103.37-.337.594-.777.828-1.21.053-.11.114-.216.183-.317-.116.531-.117 1.084-.368 1.585-.22.438-.3.916-.307 1.406-.012.746-.214 1.45-.443 2.153-.087-.53-.157-1.065-.307-1.59-.227 1.404-.245 2.848-.81 4.182.09-1.064-.02-2.11-.242-3.145-.027-.125-.033-.26-.134-.397-.045.428-.06.832-.154 1.266ZM20.125 27.2c-.182.426-.431.829-.51 1.358l.72-.842c-.106.448-.184.832-.288 1.207-.11.384-.075.796.096 1.157.18.4.365.799.529 1.206.142.353.23.72.102 1.165-.096-.636-.422-1.076-.83-1.464-.792-.755-1.085-1.73-1.234-2.785-.072-.513-.047-.98.266-1.404a.383.383 0 0 0 .093-.265c-.427.222-.87.28-1.405.212.621-.43.657-1.077.83-1.707-.365.221-.668.465-.99.689.137-.3.327-.568.45-.873.138-.343.235-.7.289-1.067.015-.1.03-.209-.13-.162-.294.085-.42-.11-.596-.386.361.185.646.149.917-.053.06.257.081.521.061.784a3.075 3.075 0 0 1-.165.778c.196-.066.295-.234.49-.265-.162.625-.227 1.263-.52 1.846.586.021.908-.243 1.08-.91.16.552.263 1.06.085 1.589.223-.233.32-.522.371-.829a2.03 2.03 0 0 0-.031-.918c-.088-.3-.203-.59-.317-.918.524.292.919.657.922 1.256.004.542-.067 1.087-.285 1.602ZM30.18 25.673c-.3-.172-.54-.423-.904-.602.167.598.145 1.21.735 1.582-.285.139-.541.09-.794.092-.253.003-.486-.106-.747-.163.678.813.356 1.677.186 2.527-.162.808-.502 1.512-1.147 2.046-.32.27-.552.631-.667 1.037-.084-.305-.055-.529.104-.883.17-.376.334-.755.505-1.13.198-.418.236-.895.108-1.339-.102-.363-.181-.731-.286-1.148.273.278.473.563.713.903l.01.015a2.068 2.068 0 0 0-.151-.685c-.127-.318-.274-.626-.405-.944-.314-.753-.442-1.504.037-2.245.155-.243.371-.404.672-.571-.39.975-.652 1.905-.078 2.848-.178-.512.013-.98.162-1.487.286.477.664.768 1.261.794-.305-.585-.375-1.204-.605-1.781.182-.037.253.152.428.18a4.59 4.59 0 0 1-.16-1.722c.23.34.48.528.864.249-.12.381-.218.43-.666.37.105.76.452 1.41.826 2.057ZM19.195 22.905c.277-.297.369-.67.413-1.086.224.177.34.36.324.626-.044.776.394 1.2 1.06 1.44.442.162.912.23 1.381.203-.118.241-.312.37-.463.583l.384-.156.075.047c-.71.323-.66.933-.64 1.541-.254-.484-.554-.934-.677-1.473-.163.077-.1.273-.237.37-.237-.27-.554-.44-.836-.656-.431-.329-.587-.838-.816-1.299a.112.112 0 0 1 .032-.14ZM25.854 25.613c.025-.345-.009-.646-.485-.727.327-.154.613-.06.893-.183l-.949-.442.036-.01c.419-.115.78-.214 1.128-.361.299-.126.58-.276.872-.408.255-.116.346-.292.32-.562-.015-.159.008-.318-.009-.477-.026-.263.046-.446.339-.503.065.352.174.69.388.987.045.062.009.12-.019.173-.153.305-.299.616-.466.914a1.42 1.42 0 0 1-.603.567c-.17.087-.332.188-.507.288-.084-.043-.054-.173-.168-.247-.187.551-.477 1.043-.77 1.552 0-.187-.014-.375 0-.56ZM17.579 20.49a1.606 1.606 0 0 0-.53-.508c.97.067 1.951 1.025 2.075 1.974.018.143-.048.146-.146.133-.338-.044-.606-.203-.782-.502-.093-.159-.167-.328-.257-.487a14.06 14.06 0 0 0-.36-.61ZM28.537 21.98c.108-.942 1.031-1.87 2.022-1.998l-.002.002c-.521.369-.776.902-1.024 1.432-.18.379-.44.619-.857.686-.119.019-.155.014-.14-.121Z"/><path d="M26.725 26.933c.265.403.4 2.459.204 3.06l-.001.002c-.304-.599-.54-1.144-.32-1.805.127-.389.1-.816.117-1.257ZM20.782 27.101c.16.96.498 1.923-.076 2.891v.002c-.06-.977-.137-1.937.076-2.893ZM21.332 28.692v.003c.288.395.565.74.647 1.184.079.422.027.86.079 1.302-.109-.255-.224-.505-.317-.764a7.356 7.356 0 0 1-.248-.806c-.067-.28-.101-.568-.16-.916l-.002-.002v-.001ZM25.453 30.923c.252-.656.036-1.478.693-1.988v.001c.07.77-.437 1.334-.693 1.987l-.005.013a.667.667 0 0 1 .005-.013Z"/></g><defs><clipPath id="a"><path fill="#fff" d="M12 12h24v24H12z"/></clipPath></defs></svg>