<svg xmlns="http://www.w3.org/2000/svg" width="29" height="28" fill="none"><path fill="#fff" d="M11.428 10.891c-.419-.277-.662-.691-.92-1.1 1.058.976 2.094 1.976 3.24 2.856-.079-.17-.217-.294-.344-.427-.456-.474-.988-.874-1.437-1.36a175.112 175.112 0 0 0-1.515-1.616.274.274 0 0 1-.07-.3c.127-.369.187-.757.177-1.147-.004-.099.199-.35.286-.38.049-.016.064.022.085.046.218.241.488.43.79.554.049.021.077.043.077.105-.004.381.171.703.35 1.023.035.063.093.116.015.19-.04.036-.008.057.028.079.195.115.37.258.584.356-.034.059-.084.004-.127.055l.353.458c.41.53.862 1.029 1.232 1.59.01.016.021.03.032.044.092-.125.252.026.355-.096.43-.507.867-1.008 1.304-1.51.051-.058.08-.182.199-.052.053.06.15-.047.126-.165-.052-.255-.113-.509-.167-.765a.47.47 0 0 1-.003-.214l.316.543c.1-.09.068-.275.283-.23l-.236-.284c.245.094.357-.04.463-.226.144-.253.266-.507.264-.804a.127.127 0 0 1 .08-.127l1.016-.548c.066-.036.14-.086.213-.003.074.083.19.132.151.284-.091.35-.123.707-.026 1.063.028.106-.03.172-.093.241-.564.617-1.126 1.236-1.694 1.85-.092.098-.141.183-.1.323.043.141.001.262-.094.386l-.017.023c-.325.422-.651.845-1.002 1.247-.098.11-.07.165.012.25.328.346.655.692.98 1.04.04.042.091.078.091.164-.264-.078-.467-.257-.71-.39.037.235.341.561.751.824.313.203.662.334 1.025.45-.019.015-.025.026-.033.026-.113.01-.262-.032-.32.084-.062.123.082.198.148.287.08.108.178.2.257.31.065.09.122.124.188.01.06-.103.105-.057.163.004.387.416.773.832 1.165 1.242.115.12.072.262.09.396.01.054-.033.175.11.083.049-.032.139.096.233-.014-.082.133-.047.193.066.266.112.074.185.208.27.318.966 1.25 2.137 2.313 3.212 3.462.192.206.397.398.58.611.291.338.64.6 1.021.825a.42.42 0 0 1 .165.165 148.25 148.25 0 0 1 2.426 4.684.17.17 0 0 1 .008.036c-.05.04-.075-.015-.105-.034-1.46-.938-2.904-1.9-4.28-2.956a1.252 1.252 0 0 1-.18-.155c-1.92-2.165-3.873-4.3-5.818-6.443-.037-.04-.07-.083-.141-.166.303.292.573.541.83.804 1.508 1.54 3.038 3.061 4.508 4.635.544.58 1.123 1.129 1.733 1.641.554.466 1.113.913 1.743 1.27.292.165.54.39.825.572-.208-.235-.412-.474-.625-.705l-3.75-4.067c-.263-.285-.604-.475-.892-.73-.54-.477-1.039-1-1.487-1.565-.713-.902-1.495-1.737-2.294-2.561-1.098-1.137-2.117-2.346-3.187-3.513-.78-.85-1.563-1.698-2.316-2.571a3.068 3.068 0 0 0-.636-.55ZM1.5 27.975h.001c.238-.47.478-.94.714-1.41.56-1.12 1.168-2.216 1.758-3.321.04-.076.082-.152.16-.196.563-.32.978-.804 1.42-1.26.782-.805 1.562-1.614 2.338-2.426.448-.47.832-.993 1.193-1.525.127-.187.247-.154.384-.166.243-.02.28-.034.223-.27-.046-.189.022-.308.142-.436.325-.35.644-.702.96-1.059.074-.084.12-.105.214-.021.17.157.351.304.541.438.166.114.14.212.026.336-.328.361-.655.724-.982 1.086-1.156 1.276-2.35 2.516-3.476 3.819-.075.086-.155.17-.215.308.124-.039.195-.11.267-.178.792-.737 1.51-1.546 2.25-2.331.858-.904 1.709-1.814 2.551-2.73.442-.48.861-.982 1.292-1.473.068-.078.142-.15.223-.216-.134.283-.325.53-.517.772-.753.953-1.515 1.897-2.21 2.893a5.042 5.042 0 0 0-.312.507 107.908 107.908 0 0 1 3.092-2.886l.034.031c-.17.2-.34.402-.51.6-1.835 2.119-3.735 4.178-5.583 6.283-.434.496-.874.987-1.29 1.498-.229.281-.52.478-.802.69A59.196 59.196 0 0 1 1.5 27.973v.001H1.5Z"/><path fill="#fff" d="M17.605 5.75c-1.11-.803-1.773-1.868-2.096-3.164v-.001c.077.028.087.093.117.142.19.298.387.591.561.898.366.644.914 1.115 1.461 1.596 1.65 1.445 3.285 2.904 4.928 4.357.338.3.685.59 1.019.894.374.341.83.532 1.289.718.394.16.793.304 1.184.472-1.244-.086-2.393-.419-3.376-1.257.21.907-.143 1.55-.904 2.01.078-.104.16-.206.233-.311.505-.706.5-1.387-.01-2.09-.312-.43-.725-.756-1.133-1.087a.107.107 0 0 1-.014-.011c-.29-.337-.656-.418-1.083-.345-.222.04-.452.03-.676.06-.14.02-.185-.008-.17-.155.036-.35.053-.703.087-1.054a.274.274 0 0 0-.095-.258 9.214 9.214 0 0 1-.414-.39c-.64-.642-1.42-.787-2.283-.633-.173.032-.343.08-.52.123.246-.369 1.038-.588 1.895-.515ZM3.22 11.71l-.01-.051c.196-.08.392-.163.59-.24a5.06 5.06 0 0 0 1.553-.941 475.393 475.393 0 0 1 6.44-5.663c.524-.452.895-1.028 1.272-1.597.134-.201.265-.405.418-.64-.09.774-1.08 2.273-2.087 3.181.35-.064.712-.036 1.048.082.331.105.638.277.9.505-.308-.071-.6-.188-.915-.234a2.2 2.2 0 0 0-1.694.428c-.27.2-.51.438-.756.666a.226.226 0 0 0-.076.192c.01.383.012.767.026 1.15.005.126-.03.154-.155.14-.37-.046-.743-.074-1.114-.117a.419.419 0 0 0-.337.091c-.339.27-.694.522-.988.843-.638.692-.948 1.82-.25 2.816.02.027.054.053.041.095-.694-.318-1-1.168-.784-2.195-.84.929-1.959 1.256-3.123 1.489ZM4.36.824c.221-.018.35.052.39.28-.143.014-.435.267-.456.397-.008.047.022.08.045.116.096.161.28.316.267.485-.012.155-.25.243-.345.401-.041.07-.094.088-.167.047a1.297 1.297 0 0 0-.2-.09c-.094-.033-.19-.164-.274-.095-.101.082-.209.19-.225.343-.001.012-.006.024-.006.036-.005.049-.006.11-.064.118-.074.01-.06-.066-.074-.106-.141-.433-.288-.863-.415-1.302-.088-.304-.215-.575-.45-.8a1.673 1.673 0 0 1-.36-.482c-.02-.045-.074-.097-.02-.15.058-.058.101.013.138.037.192.12.358.275.52.43.25.239.523.385.887.348.269-.026.542.01.81-.013ZM26.693.112c.103-.093.204-.145.348-.056-.17.207-.32.435-.515.618-.289.27-.43.595-.497.97-.067.357-.148.712-.221 1.069-.009.04 0 .1-.053.103-.053.003-.05-.055-.063-.095-.044-.132-.15-.22-.228-.33-.042-.057-.094-.04-.147-.018-.122.053-.245.097-.368.16-.123.065-.212.063-.29-.068a.59.59 0 0 0-.171-.187c-.16-.11-.184-.223-.05-.365a.523.523 0 0 0 .048-.077c.194-.304.192-.306.001-.585l-.008-.01a.264.264 0 0 0-.288-.125c.029-.18.112-.254.294-.254.373.002.747-.02 1.12-.028A.735.735 0 0 0 26.1.63c.195-.175.399-.34.592-.518Z"/><path fill="#fff" d="M10.925 11.849c-.075.076-.013.173-.082.258-.273-.693-.903-.955-1.48-1.275-.097-.053-.16-.1-.194-.213-.098-.325-.32-.585-.488-.873-.087-.152-.182-.302-.27-.455-.043-.072-.065-.155.015-.213.095-.067.147.022.191.08.257.333.49.684.695 1.05.018.032.044.066.044.1-.006.252.177.32.364.42 1.117.594 2.005 1.441 2.717 2.477.013.03.024.06.032.09a30.4 30.4 0 0 0-1.544-1.446ZM6.662 5.675a.898.898 0 0 1-.103-.048 8.58 8.58 0 0 1 .663-.604c.12-.1.234-.117.35.013.105.118.22.229.33.341.083.082.077.144-.017.222a5.38 5.38 0 0 0-.728.719c-.045.055-.078.166-.178.121a.316.316 0 0 1-.181-.238.322.322 0 0 1 .023-.197c.084-.176.014-.276-.159-.329ZM21.703 5.01c.25.175.466.388.695.617-.072.035-.12.061-.171.082-.114.048-.16.119-.105.243.069.163.062.318-.078.45-.054.05-.102.064-.156.004a7.562 7.562 0 0 0-.862-.84c-.067-.054-.04-.107.006-.155.135-.14.27-.28.408-.418.09-.09.18-.042.263.016ZM18.223 11.75c-.168.12-.32.219-.545.112.571-.462 1.12-.945 1.803-1.237.046-.02.092-.034.092-.096-.003-.254.145-.447.271-.646.151-.236.317-.463.478-.692.048-.068.101-.166.2-.11.117.067.059.174.01.257-.168.282-.344.56-.515.84l-.003.004c-.098.161-.195.321-.234.507a.12.12 0 0 1-.07.099c-.548.24-1.009.617-1.487.962ZM22.856 5.06c.032.072.064.144.056.196-.006.267-.223.472-.398.405-.031-.012-.07-.011-.087-.055-.124-.31-.386-.512-.61-.742-.125-.13-.121-.224-.004-.354.333-.369.405-.37.72.02a2.4 2.4 0 0 1 .322.528l.001.003ZM6.199 5.582c-.074-.098-.165-.188-.147-.329.097-.401.29-.76.635-.988.21-.14.31.138.444.247.103.083.149.19.03.31-.142.144-.28.291-.41.444a2.483 2.483 0 0 0-.208.299c-.096.154-.236.163-.344.017ZM7.482 6.884a.668.668 0 0 0-.044.068c-.135.003-.324-.314-.268-.404.22-.36.524-.663.887-.882.13-.08.215.012.296.102.087.095.08.185-.008.272-.127.122-.254.245-.385.365-.167.153-.34.296-.478.48ZM21.768 6.74a.708.708 0 0 1-.218.218v.002a.203.203 0 0 1-.043-.036c-.25-.336-.606-.566-.889-.87-.082-.087-.1-.17-.027-.275.11-.156.206-.182.368-.073.306.214.575.478.793.78.058.08.08.164.016.253ZM23.318 4.467c.04.071.063.15.069.232a.599.599 0 0 1-.245.34c-.067.045-.117-.018-.15-.065-.206-.294-.406-.592-.632-.872-.02-.026-.05-.063-.029-.1a.606.606 0 0 1 .299-.255c.095-.041.161.033.22.093.19.182.348.393.468.627ZM5.702 4.921c-.053-.072-.123-.14-.12-.251.005-.019.011-.048.022-.078a2.02 2.02 0 0 1 .556-.804c.12-.11.208-.076.396.11.1.098.046.171-.02.25-.2.241-.364.506-.531.768-.12.188-.172.186-.303.005ZM7.833 7.225a.493.493 0 0 1-.102.039c-.117 0-.17-.069-.22-.138-.054-.077.009-.124.054-.171.254-.27.535-.514.839-.728.104-.073.214-.125.32.005.063.077.079.15.007.226-.273.287-.558.559-.898.767ZM21.439 7.137c-.053.07-.104.138-.234.115a.834.834 0 0 1-.278-.161 8.047 8.047 0 0 1-.662-.576c-.087-.082-.12-.163-.039-.27.078-.1.166-.115.271-.05.35.22.642.505.93.796a.098.098 0 0 1 .034.111.099.099 0 0 1-.022.035ZM23.818 4.056c.006.01.01.021.013.033.003.044-.192.33-.233.34-.055.016-.079-.025-.103-.057a8.598 8.598 0 0 0-.622-.739c-.04-.04-.063-.08-.008-.12.068-.05.114-.166.224-.11.301.152.513.406.729.653ZM5.495 4.342c-.026.038-.048.086-.1.094-.09-.005-.268-.34-.218-.41a2.41 2.41 0 0 1 .595-.587c.11-.075.197-.068.288.032.1.111-.005.163-.06.224-.18.206-.349.422-.505.647ZM23.495 3c-.009-.056.225-.281.302-.281v-.002c.035.015.069.032.101.052.094.057.186.117.277.177.326.219.33.269.073.561-.052.06-.09.066-.15.016-.187-.157-.376-.31-.563-.467a.107.107 0 0 1-.04-.055ZM5.04 2.78c.143-.083.396.047.415.209v-.002c.005.046-.035.058-.063.08a3.77 3.77 0 0 0-.522.452c-.055.062-.087.068-.148-.01-.257-.33-.258-.348.087-.584l.003-.002c.074-.05.15-.1.227-.144ZM20.92 7.318a.262.262 0 0 1 .034.059c-.025.108-.093.162-.197.154a.337.337 0 0 1-.193-.096 5.353 5.353 0 0 1-.542-.564.468.468 0 0 1-.086-.158c-.021-.07.015-.13.074-.172a.1.1 0 0 1 .134.01c.26.254.518.51.776.767ZM8.297 7.495a.355.355 0 0 1-.146.028l.001.002a.176.176 0 0 1-.135-.106c-.031-.064.012-.101.052-.141.228-.229.453-.46.683-.686.053-.052.11-.136.2-.066.085.064.083.157.04.247a.433.433 0 0 1-.074.105c-.166.178-.332.356-.5.532a.353.353 0 0 1-.121.085ZM24.086 3.764c-.057.1-.128.192-.21.274a3.127 3.127 0 0 0-.598-.63c-.059-.047-.102-.096-.033-.159.069-.062.107-.209.24-.131.227.133.42.31.604.5.05.053.028.097-.003.146ZM5.411 3.147c.035-.023.073-.043.107-.063.106.022.159.094.212.172.053.077-.034.103-.074.14-.185.167-.37.337-.503.55-.055.09-.095.073-.144.003l-.021-.03c-.187-.238-.186-.238.027-.443l.003-.003c.12-.12.252-.23.393-.326ZM4.285 2.746c.004-.163.214-.429.353-.475.085-.028.137.012.195.065.06.052.109.115.166.17.068.063.073.108-.017.162-.13.078-.251.171-.373.26-.171.127-.232.11-.302-.093a.85.85 0 0 1-.022-.089ZM24.333 2.28c.146.043.342.32.345.475v.001c-.01.097-.044.197-.14.251-.08.048-.126-.046-.183-.083-.11-.071-.218-.156-.331-.224-.114-.068-.142-.136-.032-.23.102-.084.17-.24.341-.19ZM16.862 17.679a12.778 12.778 0 0 0-1.736-1.754 15.653 15.653 0 0 0 1.736 1.754ZM17.122 12.748l.466-.71c.104.142.096.24-.037.35-.141.116-.245.275-.43.36ZM17.93 10.328s0 .002-.002.002c-.198.327-.439.627-.716.892.178-.345.433-.63.716-.892l.002-.003v.001ZM13.297 14.928a.68.68 0 0 1-.447.222c.137-.146.276-.216.447-.222Z"/></svg>