<svg width="29" height="28" viewBox="0 0 29 28" fill="none" xmlns="http://www.w3.org/2000/svg">
<path d="M20.9292 1.00658C20.0752 0.997446 19.4029 1.25934 19.1484 1.81322C17.9028 4.52599 16.4828 6.57869 14.823 8.22697C14.9896 8.28248 15.1536 8.3522 15.3118 8.43385C16.022 8.8007 16.6936 9.4062 17.2429 10.1206C17.7922 10.8349 18.2191 11.6581 18.3793 12.4995C18.4201 12.7132 18.4427 12.9307 18.4426 13.1471C20.5738 11.815 23.0942 10.8928 26.1467 10.341C26.9621 10.1935 27.4402 8.77521 27.3173 7.13327L25.3947 7.07859L27.066 5.72163C26.8391 4.92827 26.4637 4.14914 25.9091 3.49475C25.0599 2.4932 23.9168 1.77888 22.8072 1.37911L21.3873 2.23191L21.5411 1.05613C21.3292 1.02605 21.125 1.00855 20.9293 1.00652L20.9292 1.00658ZM14.0044 9.10886C13.9463 9.1117 13.8918 9.12122 13.8404 9.13456C13.1854 9.69533 12.4945 10.2063 11.7656 10.6811C11.8117 10.6992 11.857 10.7176 11.9023 10.7376C12.6747 11.0762 13.4029 11.6752 14.0062 12.4124C14.7366 13.305 15.2979 14.4325 15.4075 15.5706C15.9726 15.0036 16.569 14.4799 17.2036 13.9999C17.4276 13.6415 17.4732 13.2087 17.3745 12.6908C17.2551 12.0641 16.9019 11.3548 16.4312 10.7426C15.9603 10.1304 15.3713 9.61483 14.8418 9.34123C14.5108 9.17027 14.2318 9.09787 14.0044 9.10881L14.0044 9.10886ZM10.6189 11.4758C10.5431 11.4787 10.4718 11.4906 10.4019 11.5066C8.37844 12.642 6.07676 13.5839 3.43951 14.5691C3.4709 14.5714 3.50185 14.5742 3.53357 14.5776C4.11473 14.6408 4.68616 14.8515 5.23736 15.1723L7.29837 14.2734L6.43359 16.0628C6.76144 16.3599 7.07907 16.6905 7.38209 17.0472C8.51741 18.3834 9.45825 20.1023 9.95755 21.8647C9.95766 21.8653 9.95738 21.8659 9.95755 21.8665C10.1205 22.4411 10.237 23.0103 10.3027 23.5618C11.4506 20.9128 12.7298 18.6804 14.259 16.8352C14.6583 15.6605 14.1395 14.1879 13.2165 13.0601C12.7003 12.4292 12.0694 11.9271 11.4922 11.6741C11.1676 11.5317 10.8759 11.4659 10.6189 11.4758ZM18.3641 14.4751C17.9643 14.7513 17.5732 15.0499 17.1917 15.3672C19.3333 15.8736 20.5251 17.3207 21.6025 18.7663C22.1748 19.5342 22.729 20.3036 23.4141 20.9915C24.737 21.4917 25.7749 21.3404 26.9089 20.1745C21.8686 18.6553 21.6529 15.1099 18.364 14.475L18.3641 14.4751ZM3.15748 15.5808C2.56287 15.5931 2.15889 15.8955 1.88086 16.4883C1.56312 17.1657 1.49181 18.264 1.90481 19.6089C2.21926 20.6332 2.80825 21.6716 3.47708 22.4322C4.14591 23.1926 4.89348 23.6394 5.41159 23.6575H5.41334C5.61662 23.6646 5.77171 23.6202 5.89525 23.5071L5.88502 23.4968L5.99948 23.3823C6.04285 23.3184 6.08261 23.243 6.11908 23.1533C6.27276 22.776 6.29846 22.1388 6.01824 21.3486C5.64172 20.2868 4.97262 19.6024 4.19305 19.4466L2.93698 19.197L4.02051 18.5134L6.12434 17.1907C5.21379 16.2708 4.23488 15.681 3.42408 15.5928C3.33112 15.5827 3.24236 15.5791 3.15743 15.5809L3.15748 15.5808ZM16.0774 15.8764L14.7359 17.2641C20.2288 18.2418 17.7683 24.9753 23.4482 26.8994L22.093 23.7669C23.8849 24.6501 25.7784 25.0041 27.4371 24.4248C20.0122 22.1308 22.1696 17.4804 16.0774 15.8764ZM6.80951 17.9666L5.38939 18.8604C6.11017 19.3252 6.65869 20.0944 6.98216 21.0068C7.12271 21.403 7.20819 21.7837 7.24193 22.1432L8.5238 20.865C8.08193 19.8155 7.48283 18.8106 6.80962 17.9665L6.80951 17.9666ZM8.9082 21.9245L6.60788 24.2214L6.59935 24.2129C6.36666 24.4285 6.08223 24.5828 5.76887 24.647C7.04134 25.4604 8.21033 25.705 8.87577 25.1699C9.10874 24.9826 9.26094 24.7127 9.33898 24.3821C9.31655 23.6884 9.19668 22.9266 8.97492 22.145C8.95403 22.0714 8.93084 21.9982 8.9082 21.9245Z" fill="white"/>
</svg>
