<svg width="1170" height="454" viewBox="0 0 1170 454" fill="none" xmlns="http://www.w3.org/2000/svg">
<path fill-rule="evenodd" clip-rule="evenodd" d="M1150.09 0L1079 0V5.51664L1129.27 5.51664C1139.47 7.9422 1148.41 14.0636 1154.39 22.7062V92H1157.38V27.4233C1160.71 33.5178 1163.11 40.0804 1164.51 46.8914V92H1170V19.9878L1150.09 0ZM1147.78 5.51664L1136.99 5.51664C1145.26 9.03321 1152.29 14.9496 1157.18 22.5063H1157.38V22.7861C1160.4 27.4599 1162.8 32.5138 1164.51 37.817V22.3064L1147.78 5.51664Z" fill="#2C3B5E"/>
<path fill-rule="evenodd" clip-rule="evenodd" d="M1150.09 400H1079V394.483H1129.27C1139.47 392.058 1148.41 385.936 1154.39 377.294V308H1157.38V372.577C1160.71 366.482 1163.11 359.92 1164.51 353.109V308H1170V380.012L1150.09 400ZM1147.78 394.483H1136.99C1145.26 390.967 1152.29 385.05 1157.18 377.494H1157.38V377.214C1160.4 372.54 1162.8 367.486 1164.51 362.183V377.694L1147.78 394.483Z" fill="#2C3B5E"/>
<rect width="5.48096" height="216" transform="matrix(-1 0 0 1 1169.98 92)" fill="#2C3B5E"/>
<rect width="3" height="216" transform="matrix(-1 0 0 1 1157.36 92)" fill="#2C3B5E"/>
<rect x="1079" width="6.00004" height="988" transform="rotate(90 1079 0)" fill="#2C3B5E"/>
<rect x="1079" y="394.524" width="5.47563" height="988" transform="rotate(90 1079 394.524)" fill="#2C3B5E"/>
<path fill-rule="evenodd" clip-rule="evenodd" d="M19.9081 0L91 0V5.51664L40.732 5.51664C30.5336 7.9422 21.5866 14.0636 15.608 22.7062L15.608 92H12.6217L12.6217 27.4233C9.28865 33.5178 6.88615 40.0804 5.49464 46.8914L5.49464 92H0L0 19.9878L19.9081 0ZM22.2175 5.51664L33.0077 5.51664C24.7425 9.03321 17.7128 14.9496 12.8208 22.5063H12.6217V22.7861C9.59797 27.4599 7.20159 32.5138 5.49464 37.817V22.3064L22.2175 5.51664Z" fill="#2C3B5E"/>
<path fill-rule="evenodd" clip-rule="evenodd" d="M19.9081 400H91V394.483H40.732C30.5336 392.058 21.5866 385.936 15.608 377.294L15.608 308H12.6217L12.6217 372.577C9.28865 366.482 6.88615 359.92 5.49464 353.109L5.49464 308H0L0 380.012L19.9081 400ZM22.2175 394.483H33.0077C24.7425 390.967 17.7128 385.05 12.8208 377.494H12.6217V377.214C9.59797 372.54 7.20159 367.486 5.49464 362.183V377.694L22.2175 394.483Z" fill="#2C3B5E"/>
<rect y="92" width="5.48047" height="216" fill="#2C3B5E"/>
<rect x="12.6248" y="92" width="3" height="216" fill="#2C3B5E"/>
</svg>
