<svg width="343" height="460" viewBox="0 0 343 460" fill="none" xmlns="http://www.w3.org/2000/svg">
<path fill-rule="evenodd" clip-rule="evenodd" d="M323.092 0L252 0V5.51664L302.268 5.51664C312.466 7.9422 321.413 14.0636 327.392 22.7062V92H330.378V27.4233C333.711 33.5178 336.114 40.0804 337.505 46.8914V92H343V19.9878L323.092 0ZM320.783 5.51664L309.992 5.51664C318.257 9.03321 325.287 14.9496 330.179 22.5063H330.378V22.7861C333.402 27.4599 335.798 32.5138 337.505 37.817V22.3064L320.783 5.51664Z" fill="#2C3B5E"/>
<path fill-rule="evenodd" clip-rule="evenodd" d="M323.092 460H252V454.483H302.268C312.466 452.058 321.413 445.936 327.392 437.294V368H330.378V432.577C333.711 426.482 336.114 419.92 337.505 413.109V368H343V440.012L323.092 460ZM320.783 454.483H309.992C318.257 450.967 325.287 445.05 330.179 437.494H330.378V437.214C333.402 432.54 335.798 427.486 337.505 422.183V437.694L320.783 454.483Z" fill="#2C3B5E"/>
<rect width="5.49609" height="276.058" transform="matrix(-1 0 0 1 343 92)" fill="#2C3B5E"/>
<rect width="2.98279" height="276.058" transform="matrix(-1 0 0 1 330.377 92)" fill="#2C3B5E"/>
<rect x="252" y="-6.10352e-05" width="5.51564" height="161" transform="rotate(90 252 -6.10352e-05)" fill="#2C3B5E"/>
<rect x="252" y="454.498" width="5.50244" height="161" transform="rotate(90 252 454.498)" fill="#2C3B5E"/>
<path fill-rule="evenodd" clip-rule="evenodd" d="M19.9081 0L91 0V5.51664L40.732 5.51664C30.5336 7.9422 21.5866 14.0636 15.608 22.7062L15.608 92H12.6217L12.6217 27.4233C9.28865 33.5178 6.88615 40.0804 5.49464 46.8914L5.49464 92H0L0 19.9878L19.9081 0ZM22.2175 5.51664L33.0077 5.51664C24.7425 9.03321 17.7128 14.9496 12.8208 22.5063H12.6217V22.7861C9.59797 27.4599 7.20159 32.5138 5.49464 37.817V22.3064L22.2175 5.51664Z" fill="#2C3B5E"/>
<path fill-rule="evenodd" clip-rule="evenodd" d="M19.9081 460H91V454.483H40.732C30.5336 452.058 21.5866 445.936 15.608 437.294L15.608 368H12.6217L12.6217 432.577C9.28865 426.482 6.88615 419.92 5.49464 413.109L5.49464 368H0L0 440.012L19.9081 460ZM22.2175 454.483H33.0077C24.7425 450.967 17.7128 445.05 12.8208 437.494H12.6217V437.214C9.59797 432.54 7.20159 427.486 5.49464 422.183V437.694L22.2175 454.483Z" fill="#2C3B5E"/>
<rect y="92" width="5.49609" height="276" fill="#2C3B5E"/>
<rect x="12.6227" y="92" width="2.98279" height="276" fill="#2C3B5E"/>
</svg>
