<svg width="343" height="393" viewBox="0 0 343 393" fill="none" xmlns="http://www.w3.org/2000/svg">
<path fill-rule="evenodd" clip-rule="evenodd" d="M323.092 0L252 0V5.51664L302.268 5.51664C312.466 7.9422 321.413 14.0636 327.392 22.7062V92H330.378V27.4233C333.711 33.5178 336.114 40.0804 337.505 46.8914V92H343V19.9878L323.092 0ZM320.783 5.51664L309.992 5.51664C318.257 9.03321 325.287 14.9496 330.179 22.5063H330.378V22.7861C333.402 27.4599 335.798 32.5138 337.505 37.817V22.3064L320.783 5.51664Z" fill="#2C3B5E"/>
<path fill-rule="evenodd" clip-rule="evenodd" d="M323.092 393H252V387.483H302.268C312.466 385.058 321.413 378.936 327.392 370.294V301H330.378V365.577C333.711 359.482 336.114 352.92 337.505 346.109V301H343V373.012L323.092 393ZM320.783 387.483H309.992C318.257 383.967 325.287 378.05 330.179 370.494H330.378V370.214C333.402 365.54 335.798 360.486 337.505 355.183V370.694L320.783 387.483Z" fill="#2C3B5E"/>
<rect width="5.45508" height="213" transform="matrix(-1 0 0 1 343 92)" fill="#2C3B5E"/>
<rect width="3" height="213" transform="matrix(-1 0 0 1 330.395 92)" fill="#2C3B5E"/>
<rect x="252" width="6.00001" height="161" transform="rotate(90 252 0)" fill="#2C3B5E"/>
<rect x="252" y="387.497" width="5.50306" height="161" transform="rotate(90 252 387.497)" fill="#2C3B5E"/>
<path fill-rule="evenodd" clip-rule="evenodd" d="M19.9081 0L91 0V5.51664L40.732 5.51664C30.5336 7.9422 21.5866 14.0636 15.608 22.7062L15.608 92H12.6217L12.6217 27.4233C9.28865 33.5178 6.88615 40.0804 5.49464 46.8914L5.49464 92H0L0 19.9878L19.9081 0ZM22.2175 5.51664L33.0077 5.51664C24.7425 9.03321 17.7128 14.9496 12.8208 22.5063H12.6217V22.7861C9.59797 27.4599 7.20159 32.5138 5.49464 37.817V22.3064L22.2175 5.51664Z" fill="#2C3B5E"/>
<path fill-rule="evenodd" clip-rule="evenodd" d="M19.9081 393H91V387.483H40.732C30.5336 385.058 21.5866 378.936 15.608 370.294L15.608 301H12.6217L12.6217 365.577C9.28865 359.482 6.88615 352.92 5.49464 346.109L5.49464 301H0L0 373.012L19.9081 393ZM22.2175 387.483H33.0077C24.7425 383.967 17.7128 378.05 12.8208 370.494H12.6217V370.214C9.59797 365.54 7.20159 360.486 5.49464 355.183V370.694L22.2175 387.483Z" fill="#2C3B5E"/>
<rect y="92" width="5.47388" height="210" fill="#2C3B5E"/>
<rect x="12.589" y="92" width="3" height="210" fill="#2C3B5E"/>
</svg>
