<svg width="48" height="48" viewBox="0 0 48 48" fill="none" xmlns="http://www.w3.org/2000/svg">
<path d="M4.21539 12.5773L24 1.1547L43.7846 12.5773V35.4226L24 46.8453L4.21539 35.4226V12.5773Z" fill="#171E2F" stroke="#FFD644" stroke-width="2"/>
<g clip-path="url(#clip0_138_41)">
<path d="M31.1872 12.9231C31.1872 12.9231 27.7312 15.6222 25.4311 16.2764C23.1312 16.9306 21.9875 15.5408 21.9875 15.5408C21.9875 15.5408 22.7017 17.1808 21.021 18.8457C19.3401 20.5106 15.2634 22.1999 15.2634 22.1999L15.1481 22.8624L15.4626 23.2486L12.952 29.7356C12.9228 29.7879 12.9231 29.8356 12.9231 29.8931C12.9231 30.7918 13.3254 31.5216 13.9148 31.9856C14.5041 32.4497 15.2584 32.6662 16.0079 32.6663C16.7574 32.6664 17.513 32.4496 18.1025 31.9856C18.6919 31.5217 19.0941 30.7922 19.0941 29.8931C19.1038 29.8288 19.0848 29.783 19.0606 29.7252L16.3826 23.3228C16.3854 23.2575 16.3942 23.1875 16.4582 23.0373C17.4495 22.2934 19.8459 20.5907 21.6402 20.1033C22.5638 19.8525 23.3745 20.1285 23.3471 20.4331L22.0438 29.4013L23.0873 30.8428C22.222 31.2113 21.4985 32.0241 21.2562 33.2845C18.5227 33.5791 16.6024 34.2709 16.6024 35.0769H31.8054C31.8054 34.271 29.8851 33.5791 27.1517 33.2845C26.9123 32.0195 26.1977 31.1867 25.3389 30.816L26.3626 29.4012L24.8643 20.1469C25.0675 19.2356 25.7469 18.1173 26.2718 17.405C27.063 16.3391 31.5474 14.2829 31.6174 14.3569L28.9393 20.7593C28.9152 20.8171 28.8962 20.8629 28.9058 20.9272C28.9058 21.8263 29.308 22.5558 29.8975 23.0197C30.4869 23.4837 31.2427 23.7005 31.9922 23.7004C32.7416 23.7002 33.4958 23.4838 34.0852 23.0197C34.6745 22.5557 35.0769 21.8259 35.0769 20.9272C35.0769 20.8697 35.0771 20.822 35.0479 20.7697L32.5208 14.2396C32.5681 14.0081 32.7153 13.8324 32.8666 13.6673L32.2898 12.9641L31.1872 12.9231ZM32.0775 15.6113L34.073 20.7652H29.9219L32.0775 15.6113ZM15.9224 24.5772L18.078 29.7312H13.9269L15.9224 24.5772Z" fill="white"/>
</g>
<defs>
<clipPath id="clip0_138_41">
<rect width="24" height="24" fill="white" transform="translate(12 12)"/>
</clipPath>
</defs>
</svg>
