<svg width="727" height="725" viewBox="0 0 727 725" fill="none" xmlns="http://www.w3.org/2000/svg">
<g opacity="0.3">
<path d="M103.416 531.425C98.5085 495.175 99.9624 459.614 114.575 424.016C123.408 441.09 120.973 458.816 123.481 475.527C139.511 581.341 200.325 635.027 310.829 652.391C314.252 652.427 317.671 652.148 321.043 651.557C298.979 639.667 280.695 627.488 265.828 609C362.119 663.846 448.159 660.983 522.749 565.101C491.888 566.153 466.988 559.591 438.672 546.578C464.117 541.611 487.308 540.959 505.774 521.746C486.654 522.652 470.115 524.284 453.575 524.066C415.641 523.949 379.202 509.297 351.795 483.14C348.924 480.458 346.997 475.89 342.017 476.071C347.869 469.474 353.976 475.238 359.501 476.325C383.238 480.965 406.757 484.699 434.891 475.999C413.409 471.54 395.524 468.35 377.858 464.073C346.634 456.533 316.899 445.658 294.035 421.624C288.615 416.822 284.532 410.702 282.185 403.861L284.003 402.049C319.844 424.705 358.229 426.372 401.195 416.549C370.625 398.424 339.4 391.826 308.502 384.25C257.612 371.78 208.285 356.736 170.7 317.115C155.178 300.766 143.764 281.662 131.95 262.74C135.113 259.622 138.421 261.181 141.038 263.682C181.75 302.651 233.949 315.375 286.838 326.25C340.563 337.451 394.87 346.913 443.688 374.1C449.468 377.326 456.047 380.009 460.482 384.649C485.927 411.256 518.642 413.83 554.156 412.634C535.69 447.651 546.122 475.673 571.131 500.286C580.073 509.095 591.523 515.983 603.846 509.856C616.932 503.331 619.513 489.158 620.276 475.636C620.604 469.691 619.222 462.151 612.788 460.484C605.264 458.599 603.701 466.791 600.756 471.649C599.246 474.943 598.029 478.364 597.121 481.871C590.179 470.996 593.486 461.317 596.067 450.08C577.71 454.321 579.092 445.585 583.963 433.876C588.834 422.168 592.868 408.972 598.139 396.865C601.061 389.893 605.518 383.666 611.182 378.646C616.845 373.626 623.569 369.941 630.854 367.865C656.663 360.071 682.508 352.35 707.88 340.641C687.487 366.524 679.091 398.17 662.551 425.358C651.029 444.353 649.647 464.797 645.249 485.206C621.185 596.965 542.887 672.727 425.113 691.179C288.655 712.566 169.973 675.374 76.6257 570.647C35.841 524.9 14.0311 469.655 4.25299 409.516C3.67139 405.891 5.81598 400.707 0.218079 398.641V308.125C9.05113 298.011 7.48807 284.671 10.4324 272.926C41.6571 150.329 149.689 52.2725 275.351 32.5887C338.2 22.7287 399.341 27.6587 458.737 50.7137C464.589 52.9975 471.678 53.6862 478.184 65.2137C390.944 34.6187 307.339 29.435 221.444 72.0287C242.527 72.8262 260.084 70.6512 275.969 78.0824C280.44 80.1849 288.619 81.1638 286.22 88.1963C284.257 94.0688 278.368 89.5737 273.897 88.9574C245.581 85.0062 218.354 90.5887 192.691 101.899C125.444 131.515 79.6791 180.525 59.9411 252.155C59.9411 253.714 59.0324 256.432 59.5049 256.614C61.904 257.774 61.6495 255.49 61.9767 254.076C71.9002 244.615 81.3877 234.61 91.9292 225.874C99.49 219.603 107.16 211.664 119.046 214.999C120.9 221.995 114.757 224.46 111.595 228.194C47.5095 304.065 35.7683 439.277 86.622 517.831C90.1294 524.126 94.8191 529.689 100.435 534.216C101.489 535.666 101.307 538.784 104.07 537.587C104.761 537.152 103.743 533.491 103.416 531.425Z" fill="white"/>
<path d="M282.149 403.753C280.477 402.339 279.023 400.925 281.349 398.859L283.966 401.94L282.149 403.753Z" fill="white"/>
<path d="M342.126 476.071L344.743 472.446C347.142 476.071 343.326 475.056 341.981 475.854L342.126 476.071Z" fill="white"/>
</g>
</svg>
