<svg width="237" height="110" viewBox="0 0 237 110" fill="none" xmlns="http://www.w3.org/2000/svg">
<ellipse cx="42.1296" cy="29.0639" rx="1.05908" ry="1.0763" fill="#D354FF"/>
<ellipse cx="196.389" cy="70.1526" rx="1.05908" ry="1.0763" transform="rotate(180 196.389 70.1526)" fill="#D354FF"/>
<ellipse cx="70.7246" cy="37.671" rx="1.05908" ry="1.0763" fill="#D354FF"/>
<ellipse cx="167.795" cy="61.5447" rx="1.05908" ry="1.0763" transform="rotate(180 167.795 61.5447)" fill="#D354FF"/>
<ellipse cx="235.411" cy="31.7473" rx="1.58862" ry="1.61446" fill="#D354FF"/>
<ellipse cx="3.1092" cy="67.4688" rx="1.58862" ry="1.61446" transform="rotate(180 3.1092 67.4688)" fill="#D354FF"/>
<ellipse cx="87.9938" cy="43.384" rx="0.52954" ry="1.0763" fill="#D354FF"/>
<ellipse cx="153.497" cy="64.7706" rx="0.52954" ry="1.0763" transform="rotate(180 153.497 64.7706)" fill="#D354FF"/>
<ellipse cx="79.1973" cy="23.6816" rx="1.05908" ry="1.0763" fill="#D354FF"/>
<ellipse cx="159.322" cy="75.5341" rx="1.05908" ry="1.0763" transform="rotate(180 159.322 75.5341)" fill="#D354FF"/>
<ellipse cx="103.027" cy="36.0596" rx="0.52954" ry="0.538152" fill="#D354FF"/>
<ellipse cx="135.491" cy="63.1548" rx="0.52954" ry="0.538152" transform="rotate(180 135.491 63.1548)" fill="#D354FF"/>
<ellipse cx="115.736" cy="40.3631" rx="1.58862" ry="1.61446" fill="#D354FF"/>
<ellipse cx="18.3002" cy="34.982" rx="1.58862" ry="1.61446" fill="#D354FF"/>
<ellipse cx="220.219" cy="64.2324" rx="1.58862" ry="1.61446" transform="rotate(180 220.219 64.2324)" fill="#D354FF"/>
<ellipse cx="96.1418" cy="17.2199" rx="1.05908" ry="1.0763" fill="#D354FF"/>
<ellipse cx="142.377" cy="81.996" rx="1.05908" ry="1.0763" transform="rotate(180 142.377 81.996)" fill="#D354FF"/>
<ellipse cx="0.52954" cy="0.538152" rx="0.52954" ry="0.538152" transform="matrix(-1 0 0 1 198.872 26.905)" fill="#D354FF"/>
<ellipse cx="0.52954" cy="0.538152" rx="0.52954" ry="0.538152" transform="matrix(1 0 0 -1 39.646 72.3087)" fill="#D354FF"/>
<ellipse cx="1.58862" cy="1.61446" rx="1.58862" ry="1.61446" transform="matrix(-1 0 0 1 193.576 22.6054)" fill="#D354FF"/>
<ellipse cx="1.58862" cy="1.61446" rx="1.58862" ry="1.61446" transform="matrix(1 0 0 -1 44.9414 76.6104)" fill="#D354FF"/>
<ellipse cx="1.05908" cy="1.0763" rx="1.05908" ry="1.0763" transform="matrix(-1 0 0 1 178.75 19.3718)" fill="#D354FF"/>
<ellipse cx="1.05908" cy="1.0763" rx="1.05908" ry="1.0763" transform="matrix(-1 0 0 1 174.551 87.7664)" fill="#D354FF"/>
<ellipse cx="1.05908" cy="1.0763" rx="1.05908" ry="1.0763" transform="matrix(1 0 0 -1 59.7686 79.8451)" fill="#D354FF"/>
<ellipse cx="1.58862" cy="1.61446" rx="1.58862" ry="1.61446" transform="matrix(-1 0 0 1 173.454 33.3669)" fill="#D354FF"/>
<ellipse cx="1.58862" cy="1.61446" rx="1.58862" ry="1.61446" transform="matrix(-1 0 0 1 217.388 103.031)" fill="#D354FF"/>
<ellipse cx="1.58862" cy="1.61446" rx="1.58862" ry="1.61446" transform="matrix(1 0 0 -1 65.0637 65.8469)" fill="#D354FF"/>
<ellipse cx="0.52954" cy="1.0763" rx="0.52954" ry="1.0763" transform="matrix(-1 0 0 1 142.741 36.595)" fill="#D354FF"/>
<ellipse cx="0.52954" cy="1.0763" rx="0.52954" ry="1.0763" transform="matrix(1 0 0 -1 95.7773 62.621)" fill="#D354FF"/>
<ellipse cx="0.52954" cy="1.0763" rx="0.52954" ry="1.0763" transform="matrix(1 0 0 -1 95 46.1526)" fill="#D354FF"/>
<ellipse cx="1.58862" cy="1.61446" rx="1.58862" ry="1.61446" transform="matrix(-1 0 0 1 123.677 0)" fill="#D354FF"/>
<ellipse cx="1.58862" cy="1.61446" rx="1.58862" ry="1.61446" transform="matrix(1 0 0 -1 114.841 99.2166)" fill="#D354FF"/>
<ellipse cx="1.58862" cy="1.61446" rx="1.58862" ry="1.61446" transform="matrix(-1 0 0 1 123.677 24.7511)" fill="#D354FF"/>
<ellipse cx="1.58862" cy="1.61446" rx="1.58862" ry="1.61446" transform="matrix(1 0 0 -1 114.841 74.4626)" fill="#D354FF"/>
<ellipse cx="1.58862" cy="1.61446" rx="1.58862" ry="1.61446" transform="matrix(1 0 0 -1 132 55.2289)" fill="#D354FF"/>
<ellipse cx="3.79808" cy="3.81599" rx="3.79808" ry="3.81599" transform="matrix(-1 0 0 1 161.038 7.63196)" fill="#D354FF"/>
<ellipse cx="1.58862" cy="1.61446" rx="1.58862" ry="1.61446" transform="matrix(1 0 0 -1 83.0696 86.2983)" fill="#D354FF"/>
<ellipse cx="0.52954" cy="0.538152" rx="0.52954" ry="0.538152" transform="matrix(-1 0 0 1 150.156 26.9057)" fill="#D354FF"/>
<ellipse cx="0.52954" cy="0.538152" rx="0.52954" ry="0.538152" transform="matrix(1 0 0 -1 88.3625 72.3087)" fill="#D354FF"/>
<ellipse cx="62.0714" cy="107.179" rx="2.82143" ry="2.82051" transform="rotate(180 62.0714 107.179)" fill="#D354FF"/>
</svg>
