<svg width="48" height="48" viewBox="0 0 48 48" fill="none" xmlns="http://www.w3.org/2000/svg">
<path d="M4.21539 12.5773L24 1.1547L43.7846 12.5773V35.4226L24 46.8453L4.21539 35.4226V12.5773Z" fill="#171E2F" stroke="#2C3B5E" stroke-width="2"/>
<g clip-path="url(#clip0_51_1206)">
<path d="M29.511 12.8627C28.779 12.8549 28.2027 13.0794 27.9846 13.5542C26.9169 15.8794 25.6998 17.6388 24.2771 19.0517C24.4199 19.0992 24.5605 19.159 24.6961 19.229C25.3048 19.5434 25.8805 20.0624 26.3513 20.6747C26.8221 21.287 27.188 21.9926 27.3254 22.7138C27.3603 22.897 27.3797 23.0834 27.3797 23.269C29.2064 22.1271 31.3667 21.3366 33.9832 20.8637C34.6821 20.7373 35.0919 19.5216 34.9865 18.1142L33.3386 18.0673L34.7711 16.9042C34.5767 16.2242 34.2549 15.5564 33.7795 14.9955C33.0516 14.137 32.0718 13.5247 31.1207 13.1821L29.9037 13.913L30.0355 12.9052C29.8539 12.8794 29.6788 12.8644 29.5111 12.8627L29.511 12.8627ZM23.5755 19.8076C23.5256 19.81 23.4789 19.8182 23.4348 19.8296C22.8735 20.3102 22.2812 20.7482 21.6565 21.1552C21.696 21.1707 21.7348 21.1865 21.7737 21.2036C22.4357 21.4938 23.0598 22.0073 23.577 22.6391C24.203 23.4042 24.6842 24.3707 24.7781 25.3462C25.2625 24.8602 25.7737 24.4113 26.3177 23.9999C26.5097 23.6927 26.5487 23.3217 26.4641 22.8778C26.3618 22.3406 26.059 21.7327 25.6555 21.2079C25.252 20.6832 24.7471 20.2412 24.2932 20.0067C24.0095 19.8602 23.7704 19.7981 23.5754 19.8075L23.5755 19.8076ZM20.6736 21.8364C20.6087 21.8389 20.5475 21.8491 20.4876 21.8627C18.7532 22.836 16.7803 23.6433 14.5198 24.4877C14.5467 24.4897 14.5733 24.4921 14.6005 24.4951C15.0986 24.5492 15.5884 24.7298 16.0608 25.0048L17.8274 24.2343L17.0862 25.7681C17.3672 26.0227 17.6395 26.3061 17.8992 26.6118C18.8723 27.7572 19.6787 29.2305 20.1067 30.7412C20.1068 30.7416 20.1066 30.7422 20.1067 30.7427C20.2464 31.2352 20.3462 31.7231 20.4026 32.1958C21.3865 29.9252 22.4829 28.0117 23.7937 26.4302C24.1359 25.4233 23.6912 24.161 22.9001 23.1944C22.4576 22.6535 21.9169 22.2232 21.4222 22.0063C21.1439 21.8843 20.8939 21.8279 20.6736 21.8364ZM27.3123 24.4072C26.9696 24.6439 26.6344 24.8999 26.3074 25.1718C28.1431 25.6059 29.1646 26.8463 30.0881 28.0854C30.5786 28.7435 31.0537 29.4031 31.6409 29.9927C32.7748 30.4214 33.6645 30.2917 34.6365 29.2924C30.3162 27.9902 30.1313 24.9513 27.3122 24.4071L27.3123 24.4072ZM14.2781 25.3549C13.7684 25.3655 13.4222 25.6247 13.1838 26.1328C12.9115 26.7134 12.8504 27.6548 13.2044 28.8076C13.4739 29.6856 13.9787 30.5756 14.552 31.2275C15.1253 31.8794 15.7661 32.2623 16.2102 32.2778H16.2117C16.3859 32.2839 16.5189 32.2458 16.6247 32.1489L16.616 32.1401L16.7141 32.0419C16.7513 31.9872 16.7853 31.9225 16.8166 31.8457C16.9483 31.5222 16.9704 30.976 16.7302 30.2988C16.4074 29.3886 15.8339 28.802 15.1657 28.6685L14.0891 28.4545L15.0178 27.8686L16.8211 26.7349C16.0406 25.9464 15.2016 25.4408 14.5066 25.3652C14.4269 25.3566 14.3508 25.3535 14.278 25.355L14.2781 25.3549ZM25.3523 25.6083L24.2025 26.7978C28.9107 27.6358 26.8017 33.4074 31.6701 35.0566L30.5086 32.3716C32.0445 33.1286 33.6675 33.4321 35.0892 32.9355C28.725 30.9692 30.5742 26.9832 25.3523 25.6083ZM17.4084 27.3999L16.1912 28.166C16.809 28.5644 17.2791 29.2237 17.5564 30.0058C17.6769 30.3454 17.7501 30.6717 17.779 30.9799L18.8778 29.8842C18.499 28.9847 17.9855 28.1233 17.4085 27.3999L17.4084 27.3999ZM19.2073 30.7924L17.2356 32.7612L17.2283 32.7539C17.0288 32.9387 16.785 33.071 16.5164 33.126C17.6071 33.8231 18.6091 34.0328 19.1795 33.5742C19.3792 33.4136 19.5096 33.1823 19.5765 32.8989C19.5573 32.3043 19.4545 31.6513 19.2645 30.9814C19.2466 30.9183 19.2267 30.8555 19.2073 30.7924Z" fill="#848E9C"/>
</g>
<defs>
<clipPath id="clip0_51_1206">
<rect width="24" height="24" fill="white" transform="translate(12 12)"/>
</clipPath>
</defs>
</svg>
