<svg width="570" height="206" viewBox="0 0 570 206" fill="none" xmlns="http://www.w3.org/2000/svg">
<path fill-rule="evenodd" clip-rule="evenodd" d="M550.092 0L479 0V5.51664L529.268 5.51664C539.466 7.9422 548.413 14.0636 554.392 22.7062V92H557.378V27.4233C560.711 33.5178 563.114 40.0804 564.505 46.8914V92H570V19.9878L550.092 0ZM547.783 5.51664L536.992 5.51664C545.257 9.03321 552.287 14.9496 557.179 22.5063H557.378V22.7861C560.402 27.4599 562.798 32.5138 564.505 37.817V22.3064L547.783 5.51664Z" fill="#2C3B5E"/>
<path fill-rule="evenodd" clip-rule="evenodd" d="M550.092 206H479V200.483H529.268C539.466 198.058 548.413 191.936 554.392 183.294V114H557.378V178.577C560.711 172.482 563.114 165.92 564.505 159.109V114H570V186.012L550.092 206ZM547.783 200.483H536.992C545.257 196.967 552.287 191.05 557.179 183.494H557.378V183.214C560.402 178.54 562.798 173.486 564.505 168.183V183.694L547.783 200.483Z" fill="#2C3B5E"/>
<rect width="5.48535" height="58.7429" transform="matrix(-1 0 0 1 570 92)" fill="#2C3B5E"/>
<rect width="3" height="58.7429" transform="matrix(-1 0 0 1 557.396 92)" fill="#2C3B5E"/>
<rect x="479" width="6.00002" height="388" transform="rotate(90 479 0)" fill="#2C3B5E"/>
<rect x="479" y="200" width="6.00002" height="388" transform="rotate(90 479 200)" fill="#2C3B5E"/>
<path fill-rule="evenodd" clip-rule="evenodd" d="M19.9081 0L91 0V5.51664L40.732 5.51664C30.5336 7.9422 21.5866 14.0636 15.608 22.7062L15.608 92H12.6217L12.6217 27.4233C9.28865 33.5178 6.88615 40.0804 5.49464 46.8914L5.49464 92H0L0 19.9878L19.9081 0ZM22.2175 5.51664L33.0077 5.51664C24.7425 9.03321 17.7128 14.9496 12.8208 22.5063H12.6217V22.7861C9.59797 27.4599 7.20159 32.5138 5.49464 37.817V22.3064L22.2175 5.51664Z" fill="#2C3B5E"/>
<path fill-rule="evenodd" clip-rule="evenodd" d="M19.9081 206H91V200.483H40.732C30.5336 198.058 21.5866 191.936 15.608 183.294L15.608 114H12.6217L12.6217 178.577C9.28865 172.482 6.88615 165.92 5.49464 159.109L5.49464 114H0L0 186.012L19.9081 206ZM22.2175 200.483H33.0077C24.7425 196.967 17.7128 191.05 12.8208 183.494H12.6217V183.214C9.59797 178.54 7.20159 173.486 5.49464 168.183V183.694L22.2175 200.483Z" fill="#2C3B5E"/>
<rect y="92" width="5.4646" height="68" fill="#2C3B5E"/>
<rect x="12.6094" y="92" width="3" height="68" fill="#2C3B5E"/>
</svg>
