<svg width="343" height="264" viewBox="0 0 343 264" fill="none" xmlns="http://www.w3.org/2000/svg">
<path fill-rule="evenodd" clip-rule="evenodd" d="M323.092 0L252 0V5.51664L302.268 5.51664C312.466 7.9422 321.413 14.0636 327.392 22.7062V92H330.378V27.4233C333.711 33.5178 336.114 40.0804 337.505 46.8914V92H343V19.9878L323.092 0ZM320.783 5.51664L309.992 5.51664C318.257 9.03321 325.287 14.9496 330.179 22.5063H330.378V22.7861C333.402 27.4599 335.798 32.5138 337.505 37.817V22.3064L320.783 5.51664Z" fill="#2C3B5E"/>
<path fill-rule="evenodd" clip-rule="evenodd" d="M323.092 264H252V258.483H302.268C312.466 256.058 321.413 249.936 327.392 241.294V172H330.378V236.577C333.711 230.482 336.114 223.92 337.505 217.109V172H343V244.012L323.092 264ZM320.783 258.483H309.992C318.257 254.967 325.287 249.05 330.179 241.494H330.378V241.214C333.402 236.54 335.798 231.486 337.505 226.183V241.694L320.783 258.483Z" fill="#2C3B5E"/>
<rect width="5.46545" height="83" transform="matrix(-1 0 0 1 343 92)" fill="#2C3B5E"/>
<rect width="3" height="83" transform="matrix(-1 0 0 1 330.384 92)" fill="#2C3B5E"/>
<rect x="252" width="6.00001" height="161" transform="rotate(90 252 0)" fill="#2C3B5E"/>
<rect x="252" y="258.497" width="5.50306" height="161" transform="rotate(90 252 258.497)" fill="#2C3B5E"/>
<path fill-rule="evenodd" clip-rule="evenodd" d="M19.9081 0L91 0V5.51664L40.732 5.51664C30.5336 7.9422 21.5866 14.0636 15.608 22.7062L15.608 92H12.6217L12.6217 27.4233C9.28865 33.5178 6.88615 40.0804 5.49464 46.8914L5.49464 92H0L0 19.9878L19.9081 0ZM22.2175 5.51664L33.0077 5.51664C24.7425 9.03321 17.7128 14.9496 12.8208 22.5063H12.6217V22.7861C9.59797 27.4599 7.20159 32.5138 5.49464 37.817V22.3064L22.2175 5.51664Z" fill="#2C3B5E"/>
<path fill-rule="evenodd" clip-rule="evenodd" d="M19.9081 264H91V258.483H40.732C30.5336 256.058 21.5866 249.936 15.608 241.294L15.608 172H12.6217L12.6217 236.577C9.28865 230.482 6.88615 223.92 5.49464 217.109L5.49464 172H0L0 244.012L19.9081 264ZM22.2175 258.483H33.0077C24.7425 254.967 17.7128 249.05 12.8208 241.494H12.6217V241.214C9.59797 236.54 7.20159 231.486 5.49464 226.183V241.694L22.2175 258.483Z" fill="#2C3B5E"/>
<rect y="92" width="5.4668" height="82" fill="#2C3B5E"/>
<rect x="12.6382" y="92" width="3" height="82" fill="#2C3B5E"/>
</svg>
