<svg width="690" height="680" viewBox="0 0 690 680" fill="none" xmlns="http://www.w3.org/2000/svg">
<path fill-rule="evenodd" clip-rule="evenodd" d="M670.092 0L599 0V5.51664L649.268 5.51664C659.466 7.9422 668.413 14.0636 674.392 22.7062V92H677.378V27.4233C680.711 33.5178 683.114 40.0804 684.505 46.8914V92H690V19.9878L670.092 0ZM667.783 5.51664L656.992 5.51664C665.257 9.03321 672.287 14.9496 677.179 22.5063H677.378V22.7861C680.402 27.4599 682.798 32.5138 684.505 37.817V22.3064L667.783 5.51664Z" fill="#2C3B5E"/>
<path fill-rule="evenodd" clip-rule="evenodd" d="M670.092 680H599V674.483H649.268C659.466 672.058 668.413 665.936 674.392 657.294V588H677.378V652.577C680.711 646.482 683.114 639.92 684.505 633.109V588H690V660.012L670.092 680ZM667.783 674.483H656.992C665.257 670.967 672.287 665.05 677.179 657.494H677.378V657.214C680.402 652.54 682.798 647.486 684.505 642.183V657.694L667.783 674.483Z" fill="#2C3B5E"/>
<rect width="5.48096" height="496" transform="matrix(-1 0 0 1 690 92)" fill="#2C3B5E"/>
<rect width="3" height="496" transform="matrix(-1 0 0 1 677.382 92)" fill="#2C3B5E"/>
<rect x="599" width="6.00002" height="508" transform="rotate(90 599 0)" fill="#2C3B5E"/>
<rect x="599" y="674" width="6.00002" height="508" transform="rotate(90 599 674)" fill="#2C3B5E"/>
<path fill-rule="evenodd" clip-rule="evenodd" d="M19.9081 0L91 0V5.51664L40.732 5.51664C30.5336 7.9422 21.5866 14.0636 15.608 22.7062L15.608 92H12.6217L12.6217 27.4233C9.28865 33.5178 6.88615 40.0804 5.49464 46.8914L5.49464 92H0L0 19.9878L19.9081 0ZM22.2175 5.51664L33.0077 5.51664C24.7425 9.03321 17.7128 14.9496 12.8208 22.5063H12.6217V22.7861C9.59797 27.4599 7.20159 32.5138 5.49464 37.817V22.3064L22.2175 5.51664Z" fill="#2C3B5E"/>
<path fill-rule="evenodd" clip-rule="evenodd" d="M19.9081 680H91V674.483H40.732C30.5336 672.058 21.5866 665.936 15.608 657.294L15.608 588H12.6217L12.6217 652.577C9.28865 646.482 6.88615 639.92 5.49464 633.109L5.49464 588H0L0 660.012L19.9081 680ZM22.2175 674.483H33.0077C24.7425 670.967 17.7128 665.05 12.8208 657.494H12.6217V657.214C9.59797 652.54 7.20159 647.486 5.49464 642.183V657.694L22.2175 674.483Z" fill="#2C3B5E"/>
<rect y="92" width="5.48047" height="496" fill="#2C3B5E"/>
<rect x="12.6247" y="92" width="3" height="496" fill="#2C3B5E"/>
</svg>
