<svg width="810" height="462" viewBox="0 0 810 462" fill="none" xmlns="http://www.w3.org/2000/svg">
<path fill-rule="evenodd" clip-rule="evenodd" d="M790.092 0L719 0V5.51664L769.268 5.51664C779.466 7.9422 788.413 14.0636 794.392 22.7062V92H797.378V27.4233C800.711 33.5178 803.114 40.0804 804.505 46.8914V92H810V19.9878L790.092 0ZM787.783 5.51664L776.992 5.51664C785.257 9.03321 792.287 14.9496 797.179 22.5063H797.378V22.7861C800.402 27.4599 802.798 32.5138 804.505 37.817V22.3064L787.783 5.51664Z" fill="#2C3B5E"/>
<path fill-rule="evenodd" clip-rule="evenodd" d="M790.092 462H719V456.483H769.268C779.466 454.058 788.413 447.936 794.392 439.294V370H797.378V434.577C800.711 428.482 803.114 421.92 804.505 415.109V370H810V442.012L790.092 462ZM787.783 456.483H776.992C785.257 452.967 792.287 447.05 797.179 439.494H797.378V439.214C800.402 434.54 802.798 429.486 804.505 424.183V439.694L787.783 456.483Z" fill="#2C3B5E"/>
<rect width="5.46484" height="278" transform="matrix(-1 0 0 1 810 92)" fill="#2C3B5E"/>
<rect width="3" height="278" transform="matrix(-1 0 0 1 797.398 92)" fill="#2C3B5E"/>
<rect x="719" width="5.52932" height="628" transform="rotate(90 719 0)" fill="#2C3B5E"/>
<rect x="719" y="456.508" width="5.49246" height="628" transform="rotate(90 719 456.508)" fill="#2C3B5E"/>
<path fill-rule="evenodd" clip-rule="evenodd" d="M19.9081 0L91 0V5.51664L40.732 5.51664C30.5336 7.9422 21.5866 14.0636 15.608 22.7062L15.608 92H12.6217L12.6217 27.4233C9.28865 33.5178 6.88615 40.0804 5.49464 46.8914L5.49464 92H0L0 19.9878L19.9081 0ZM22.2175 5.51664L33.0077 5.51664C24.7425 9.03321 17.7128 14.9496 12.8208 22.5063H12.6217V22.7861C9.59797 27.4599 7.20159 32.5138 5.49464 37.817V22.3064L22.2175 5.51664Z" fill="#2C3B5E"/>
<path fill-rule="evenodd" clip-rule="evenodd" d="M19.9081 462H91V456.483H40.732C30.5336 454.058 21.5866 447.936 15.608 439.294L15.608 370H12.6217L12.6217 434.577C9.28865 428.482 6.88615 421.92 5.49464 415.109L5.49464 370H0L0 442.012L19.9081 462ZM22.2175 456.483H33.0077C24.7425 452.967 17.7128 447.05 12.8208 439.494H12.6217V439.214C9.59797 434.54 7.20159 429.486 5.49464 424.183V439.694L22.2175 456.483Z" fill="#2C3B5E"/>
<rect y="92" width="5.50781" height="278" fill="#2C3B5E"/>
<rect x="12.6243" y="92" width="3" height="278" fill="#2C3B5E"/>
</svg>
