<svg width="19" height="18" viewBox="0 0 19 18" fill="none" xmlns="http://www.w3.org/2000/svg">
<g clip-path="url(#clip0_362_321)">
<path d="M9.5 0C4.53754 0 0.5 4.03754 0.5 9C0.5 13.9625 4.53754 18 9.5 18C14.4625 18 18.5 13.9625 18.5 9C18.5 4.03754 14.4625 0 9.5 0ZM9.5 1.38462C13.7141 1.38462 17.1154 4.78592 17.1154 9C17.1154 13.2141 13.7141 16.6154 9.5 16.6154C5.28592 16.6154 1.88462 13.2141 1.88462 9C1.88462 4.78592 5.28592 1.38462 9.5 1.38462ZM8.80769 4.84615V8.30769H5.34615V9.69231H8.80769V13.1538H10.1923V9.69231H13.6538V8.30769H10.1923V4.84615H8.80769Z" fill="white"/>
</g>
<defs>
<clipPath id="clip0_362_321">
<rect width="18" height="18" fill="white" transform="translate(0.5)"/>
</clipPath>
</defs>
</svg>
